<svg width="751" height="531" viewBox="0 0 751 531" fill="none" xmlns="http://www.w3.org/2000/svg">
<circle cx="180" cy="351" r="180" fill="#1342F4"/>
<path d="M539.323 70.7216C539.551 70.9335 539.565 71.2906 539.353 71.5192C539.141 71.7479 538.784 71.7615 538.555 71.5496L539.323 70.7216ZM439.152 75.5033C438.84 75.5152 438.578 75.2723 438.566 74.9608L438.373 69.8849C438.361 69.5734 438.604 69.3112 438.915 69.2994C439.227 69.2875 439.489 69.5304 439.501 69.8419L439.673 74.3538L444.185 74.1819C444.496 74.17 444.758 74.4129 444.77 74.7244C444.782 75.0359 444.539 75.298 444.228 75.3099L439.152 75.5033ZM538.939 71.1356L538.555 71.5496C510.172 45.2504 465.843 46.9398 439.544 75.323L439.13 74.9393L438.716 74.5557C465.439 45.7153 510.482 43.9987 539.323 70.7216L538.939 71.1356Z" fill="#090909"/>
<path d="M537.712 76.2246C537.94 76.4365 537.954 76.7936 537.742 77.0222C537.53 77.2509 537.173 77.2645 536.945 77.0526L537.712 76.2246ZM537.328 76.6386L536.945 77.0526C529.407 70.0689 520.747 65.0596 511.599 61.9991L511.778 61.4638L511.957 60.9286C521.254 64.0389 530.055 69.1298 537.712 76.2246L537.328 76.6386Z" fill="#090909"/>
<mask id="mask0_7746_11110" style="mask-type:alpha" maskUnits="userSpaceOnUse" x="0" y="171" width="360" height="361">
<circle cx="180" cy="351.001" r="180" fill="#1342F4"/>
</mask>
<g mask="url(#mask0_7746_11110)">
<path d="M242.212 136.711C243.767 141.204 244.818 145.697 245.322 151.428C245.841 157.173 245.683 163.077 247.497 168.564C250.694 178.241 259.564 185.297 262.415 195.074C262.977 196.975 263.279 199.063 262.602 200.921C260.831 205.845 254.164 206.177 248.937 206.249C241.247 206.364 233.586 207.818 226.401 210.525C222.34 212.052 217.631 213.953 213.916 211.721C210.273 209.532 208.214 203.729 204.023 204.506C202.857 204.722 201.863 205.471 200.754 205.889C196.535 207.458 191.898 203.498 191.006 199.092C190.07 194.469 191.855 183.756 193.9 179.277C195.211 176.441 197.471 174.151 199.099 171.487C203.649 164.013 202.684 154.913 205.19 146.805C207.551 139.145 208.732 129.036 214.233 122.844C218.25 118.308 224.86 115.773 230.606 117.703C232.506 118.337 234.278 119.445 235.473 121.044C236.582 122.527 237.143 124.341 237.878 126.041C239.591 129.972 241.046 133.341 242.212 136.711Z" fill="black"/>
<path d="M374.177 381.886C347.421 371.576 231.559 318.21 262.793 274.621C268.265 266.974 277.884 263.072 287.273 262.654C296.662 262.237 305.935 264.886 314.719 268.213C344.167 279.344 370.39 298.611 390.262 322.976C399.046 333.733 435.837 387.675 396.9 385.861C388.865 385.486 381.679 384.795 374.177 381.901V381.886Z" fill="#F9EFE3" stroke="black" stroke-width="1.08" stroke-miterlimit="10"/>
<path d="M299.249 348.448C297.276 311.987 284.575 269.248 251.758 248.757C237.905 240.102 222.367 239.685 206.542 238.36C172.5 235.494 134.182 241.643 110.522 269.867C93.7896 289.826 73.6872 315.789 73.644 341.464C73.6152 365.166 73.0536 386.882 73.0248 410.584C72.9672 452.2 69.9576 494.406 59.0136 534.554C58.092 537.923 104.158 532.624 107.441 532.35C116.844 531.544 126.535 531.962 135.967 531.904C159.281 531.746 182.58 531.962 205.894 532.279C239.863 532.725 273.847 534.021 307.817 534.021C305.441 504.487 300.343 475.643 299.695 445.807C299.033 414.976 300.343 384.131 299.45 353.301C299.407 351.702 299.335 350.075 299.249 348.448Z" fill="#FF8D1D" stroke="black" stroke-width="1.44" stroke-miterlimit="10"/>
<path d="M158.247 245.991C153.942 248.814 151.868 250.138 147.562 252.946" stroke="black" stroke-width="1.08" stroke-miterlimit="10"/>
<path d="M166.674 250.441C162.369 254.747 160.079 256.864 155.773 261.169" stroke="black" stroke-width="1.08" stroke-miterlimit="10"/>
<path d="M174.003 258.277C169.582 263.058 168.574 264.282 165.219 269.869" stroke="black" stroke-width="1.08" stroke-miterlimit="10"/>
<path d="M180.607 263.891C179.009 269.334 178.246 271.667 175.898 276.822" stroke="black" stroke-width="1.08" stroke-miterlimit="10"/>
<path d="M191.68 268.874C191.162 275.498 191.09 275.916 190.586 282.54" stroke="black" stroke-width="1.08" stroke-miterlimit="10"/>
<path d="M200.93 270.371C202.269 275.339 203.003 274.115 205.005 280.811" stroke="black" stroke-width="1.08" stroke-miterlimit="10"/>
<path d="M209.93 263.963C214.912 267.434 214.192 266.901 219.174 270.357" stroke="black" stroke-width="1.08" stroke-miterlimit="10"/>
<path d="M217.922 251.969C223.797 253.928 223.063 254.101 229.111 255.454" stroke="black" stroke-width="1.08" stroke-miterlimit="10"/>
<path d="M221.406 245.49C226.979 246.08 228.261 245.763 233.589 247.491" stroke="black" stroke-width="1.08" stroke-miterlimit="10"/>
<path d="M164.564 258.751C170.238 264.094 176.948 268.169 184.076 271.236C185.992 272.071 187.964 272.705 189.937 273.396C192.097 274.145 194.272 274.937 196.547 275.254C200.204 275.772 203.459 274.03 206.267 271.87C211.264 268.025 215.497 263.215 219.025 258.003C220.609 255.67 221.876 253.035 223.187 250.543C223.633 249.694 227.55 240.218 227.737 240.204C223.763 240.521 221.718 237.871 221.344 234.127C220.58 226.481 220.134 218.777 220.048 211.087C220.004 207.689 219.817 206.753 222.236 204.708C234.289 194.513 238.12 182.474 237.947 166.692C237.788 152.306 236.579 137.935 234.332 123.722C218.924 121.966 197.828 116.566 185.012 126.775C175.408 134.422 168.236 144.79 164.046 156.166C159.265 169.154 162.145 169.529 164.896 182.849C168.15 198.602 172.124 232.615 154.801 241.889C153.98 242.321 153.145 242.695 152.281 243.041C155.377 249.175 159.496 253.999 164.536 258.737L164.564 258.751Z" fill="#F9EFE3" stroke="#1C1C1B" stroke-width="1.08" stroke-miterlimit="10"/>
<path d="M176.704 160.369C177.424 158.554 179.901 154.724 182.234 154.839C185.056 154.983 184.854 158.396 186.266 160.239C189.736 164.732 191.738 155.646 192.501 153.399C193.941 149.223 195.179 144.86 198.318 141.577C201.458 138.294 208.672 138.74 212.862 138.25C218.406 137.602 223.994 136.854 229.307 135.039C240.136 131.338 246.99 119.905 244.514 108.615C242.138 97.7143 228.976 90.6583 218.493 90.8167C210.112 90.9463 202.048 93.8695 193.782 95.1655C182.954 96.8791 171.664 95.8423 161.224 99.2119C151.706 102.279 143.44 109.047 138.544 117.759C134.901 124.254 132.942 131.914 127.557 137.041C120.947 143.319 110.075 144.903 105.683 152.881C102.818 158.108 103.667 164.631 101.565 170.218C100.139 173.991 97.4609 177.116 95.1137 180.399C92.1473 184.546 87.8129 192.222 87.2225 197.377C86.9201 199.969 87.7841 202.863 89.9873 204.26C91.8593 205.455 94.2497 205.34 96.4385 205.7C101.752 206.564 106.115 210.308 111.184 212.094C123.741 216.514 137.81 208.364 150.741 211.518C158.862 213.505 166.394 215.967 170.152 206.377C171.362 203.295 171.75 199.954 172.125 196.657C173.09 188.247 174.04 179.823 175.005 171.414C175.35 168.433 175.336 163.825 176.704 160.354V160.369Z" fill="black"/>
<path d="M176.229 178.097C176.229 178.097 176.143 178.097 176.099 178.097C167.906 177.953 161.469 171.098 160.735 163.625C159.986 155.964 167.013 150.002 174.659 150.132C178.72 150.204 181.658 152.047 183.674 154.797" fill="#F9EFE3"/>
<path d="M176.229 178.097C176.229 178.097 176.143 178.097 176.099 178.097C167.906 177.953 161.469 171.098 160.735 163.625C159.986 155.964 167.013 150.002 174.659 150.132C178.72 150.204 181.658 152.047 183.674 154.797" stroke="#080808" stroke-width="0.72" stroke-miterlimit="10"/>
<path d="M219.674 213.666C219.674 211.779 219.847 209.835 220.538 208.064C220.869 206.725 221.431 205.472 222.381 204.536V204.406C214.505 210.21 201.458 208.41 199.039 205.357C203.921 213.493 211.625 216.762 219.991 218.13C219.833 216.646 219.689 215.163 219.689 213.68L219.674 213.666Z" fill="black"/>
<path d="M291.028 362.848C321.138 372.885 323.658 375.304 334.487 376.182C348.858 350.248 361.732 323.478 377.082 298.106C333.249 265.403 289.285 249.894 235.977 242.003" fill="#FF8D1D"/>
<path d="M291.028 362.848C321.138 372.885 323.658 375.304 334.487 376.182C348.858 350.248 361.732 323.478 377.082 298.106C333.249 265.403 289.285 249.894 235.977 242.003" stroke="black" stroke-width="1.44" stroke-miterlimit="10"/>
<path d="M-14.9434 409.866C11.8118 399.556 127.674 346.189 96.4406 302.601C90.9686 294.954 81.3494 291.052 71.9606 290.634C62.5718 290.216 53.2982 292.866 44.5142 296.192C15.0662 307.324 -11.1562 326.591 -31.0282 350.956C-39.8122 361.713 -76.6042 415.655 -37.6666 413.841C-29.6314 413.466 -22.4458 412.775 -14.9434 409.881V409.866Z" fill="#F9EFE3" stroke="#1C1C1B" stroke-width="0.72" stroke-miterlimit="10"/>
<path d="M150.728 243.572C97.8369 256.158 54.3201 269.866 11.0625 301.186C21.7329 323.838 39.9201 366.548 50.5905 389.199C87.9585 375.98 70.6497 382.662 108.018 369.428" fill="#FF8D1D"/>
<path d="M150.728 243.572C97.8369 256.158 54.3201 269.866 11.0625 301.186C21.7329 323.838 39.9201 366.548 50.5905 389.199C87.9585 375.98 70.6497 382.662 108.018 369.428" stroke="black" stroke-width="1.44" stroke-miterlimit="10"/>
<path d="M208.945 180.472C210.285 185.455 215.699 188.378 220.854 188.291C227.737 188.191 230.92 184.835 232.705 179.464L208.96 180.472H208.945Z" fill="#F9EFE3" stroke="black" stroke-width="1.08" stroke-miterlimit="10"/>
<path d="M142.883 245.806C152.488 259.443 164.728 271.913 180.251 278.566C193.182 284.096 206.732 284.052 216.568 273.123C223.134 265.836 228.289 256.635 232.825 248.024C233.876 246.022 234.928 244.02 235.979 242.019" stroke="black" stroke-width="1.08" stroke-miterlimit="10"/>
<path d="M215.729 224.363C215.268 228.726 215.556 233.161 216.578 237.409L215.729 224.363Z" fill="white"/>
<path d="M215.729 224.363C215.268 228.726 215.556 233.161 216.578 237.409" stroke="#1C1C1B" stroke-width="0.72" stroke-miterlimit="10"/>
<path d="M218.092 240.406C218.02 241.673 218.567 242.955 219.518 243.79L218.092 240.406Z" fill="white"/>
<path d="M218.092 240.406C218.02 241.673 218.567 242.955 219.518 243.79" stroke="#1C1C1B" stroke-width="0.72" stroke-miterlimit="10"/>
<path d="M187.164 194.455C189.655 196.687 192.132 198.933 194.623 201.165L187.164 194.455Z" fill="white"/>
<path d="M187.164 194.455C189.655 196.687 192.132 198.933 194.623 201.165" stroke="#1C1C1B" stroke-width="0.72" stroke-miterlimit="10"/>
</g>
<mask id="mask1_7746_11110" style="mask-type:alpha" maskUnits="userSpaceOnUse" x="59" y="0" width="418" height="404">
<rect x="59.2031" y="6.10352e-05" width="417.6" height="403.2" fill="#D9D9D9"/>
</mask>
<g mask="url(#mask1_7746_11110)">
<path d="M242.22 136.71C243.775 141.203 244.826 145.696 245.33 151.427C245.849 157.173 245.69 163.077 247.505 168.563C250.702 178.24 259.572 185.296 262.423 195.073C262.985 196.974 263.287 199.062 262.61 200.92C260.839 205.845 254.172 206.176 248.945 206.248C241.255 206.363 233.594 207.817 226.409 210.525C222.348 212.051 217.639 213.952 213.924 211.72C210.281 209.531 208.222 203.728 204.031 204.505C202.865 204.721 201.871 205.47 200.762 205.888C196.543 207.457 191.906 203.497 191.014 199.091C190.078 194.469 191.863 183.755 193.908 179.277C195.218 176.44 197.479 174.15 199.106 171.486C203.657 164.013 202.692 154.912 205.198 146.805C207.559 139.144 208.74 129.035 214.241 122.843C218.258 118.307 224.868 115.773 230.614 117.702C232.514 118.336 234.286 119.445 235.481 121.043C236.59 122.526 237.151 124.341 237.886 126.04C239.599 129.971 241.054 133.341 242.22 136.71Z" fill="black"/>
<path d="M374.185 381.886C347.429 371.575 231.567 318.209 262.801 274.62C268.273 266.974 277.892 263.071 287.281 262.654C296.669 262.236 305.943 264.886 314.727 268.212C344.175 279.343 370.397 298.61 390.269 322.975C399.053 333.732 435.845 387.674 396.908 385.86C388.872 385.486 381.687 384.794 374.185 381.9V381.886Z" fill="#F9EFE3" stroke="black" stroke-width="1.08" stroke-miterlimit="10"/>
<path d="M299.257 348.447C297.284 311.987 284.583 269.247 251.765 248.756C237.913 240.102 222.375 239.684 206.549 238.359C172.508 235.494 134.189 241.643 110.53 269.867C93.7975 289.825 73.6951 315.788 73.6519 341.463C73.6231 365.166 73.0615 386.881 73.0327 410.583C72.9751 452.199 69.9655 494.406 59.0215 534.553C58.0999 537.923 104.165 532.623 107.449 532.35C116.852 531.543 126.543 531.961 135.975 531.903C159.289 531.745 182.588 531.961 205.901 532.278C239.871 532.724 273.855 534.02 307.825 534.02C305.449 504.486 300.351 475.643 299.703 445.806C299.041 414.975 300.351 384.131 299.458 353.3C299.415 351.702 299.343 350.075 299.257 348.447Z" fill="#FF8D1D" stroke="black" stroke-width="1.44" stroke-miterlimit="10"/>
<path d="M158.255 245.99C153.95 248.813 151.876 250.138 147.57 252.946" stroke="black" stroke-width="1.08" stroke-miterlimit="10"/>
<path d="M166.682 250.44C162.376 254.746 160.087 256.863 155.781 261.168" stroke="black" stroke-width="1.08" stroke-miterlimit="10"/>
<path d="M174.011 258.276C169.59 263.057 168.582 264.281 165.227 269.868" stroke="black" stroke-width="1.08" stroke-miterlimit="10"/>
<path d="M180.615 263.89C179.017 269.334 178.253 271.666 175.906 276.822" stroke="black" stroke-width="1.08" stroke-miterlimit="10"/>
<path d="M191.688 268.873C191.17 275.497 191.098 275.915 190.594 282.539" stroke="black" stroke-width="1.08" stroke-miterlimit="10"/>
<path d="M200.938 270.37C202.277 275.338 203.011 274.114 205.013 280.81" stroke="black" stroke-width="1.08" stroke-miterlimit="10"/>
<path d="M209.938 263.962C214.92 267.433 214.2 266.9 219.182 270.356" stroke="black" stroke-width="1.08" stroke-miterlimit="10"/>
<path d="M217.93 251.969C223.805 253.927 223.07 254.1 229.118 255.453" stroke="black" stroke-width="1.08" stroke-miterlimit="10"/>
<path d="M221.414 245.489C226.987 246.079 228.268 245.763 233.596 247.491" stroke="black" stroke-width="1.08" stroke-miterlimit="10"/>
<path d="M164.572 258.751C170.246 264.093 176.956 268.168 184.084 271.235C185.999 272.071 187.972 272.704 189.945 273.395C192.105 274.144 194.279 274.936 196.555 275.253C200.212 275.771 203.467 274.029 206.275 271.869C211.271 268.024 215.505 263.215 219.033 258.002C220.617 255.669 221.884 253.034 223.195 250.543C223.641 249.693 227.558 240.218 227.745 240.203C223.771 240.52 221.726 237.871 221.351 234.127C220.588 226.48 220.142 218.776 220.055 211.087C220.012 207.688 219.825 206.752 222.244 204.707C234.297 194.512 238.127 182.474 237.955 166.691C237.796 152.306 236.587 137.935 234.34 123.722C218.932 121.965 197.836 116.565 185.02 126.775C175.415 134.421 168.244 144.789 164.054 156.165C159.273 169.154 162.153 169.528 164.903 182.848C168.158 198.602 172.132 232.615 154.809 241.888C153.988 242.32 153.153 242.695 152.289 243.04C155.385 249.175 159.503 253.999 164.543 258.736L164.572 258.751Z" fill="#F9EFE3" stroke="#1C1C1B" stroke-width="1.08" stroke-miterlimit="10"/>
<path d="M176.712 160.368C177.432 158.554 179.909 154.723 182.241 154.838C185.064 154.982 184.862 158.395 186.273 160.238C189.744 164.731 191.745 155.645 192.509 153.398C193.949 149.222 195.187 144.859 198.326 141.576C201.465 138.293 208.68 138.739 212.87 138.25C218.414 137.602 224.001 136.853 229.315 135.038C240.144 131.338 246.998 119.904 244.521 108.614C242.145 97.7136 228.984 90.6576 218.501 90.816C210.12 90.9456 202.056 93.8688 193.79 95.1648C182.961 96.8784 171.672 95.8416 161.232 99.2112C151.714 102.278 143.448 109.046 138.552 117.758C134.909 124.253 132.95 131.914 127.565 137.04C120.955 143.318 110.083 144.902 105.691 152.88C102.826 158.107 103.675 164.63 101.573 170.218C100.147 173.99 97.4687 177.115 95.1215 180.398C92.1551 184.546 87.8207 192.221 87.2303 197.376C86.9279 199.968 87.7919 202.862 89.9951 204.259C91.8671 205.454 94.2575 205.339 96.4463 205.699C101.76 206.563 106.123 210.307 111.192 212.093C123.749 216.514 137.818 208.363 150.749 211.517C158.87 213.504 166.401 215.966 170.16 206.376C171.369 203.294 171.758 199.954 172.133 196.656C173.097 188.246 174.048 179.822 175.013 171.413C175.358 168.432 175.344 163.824 176.712 160.354V160.368Z" fill="black"/>
<path d="M176.237 178.096C176.237 178.096 176.15 178.096 176.107 178.096C167.914 177.952 161.477 171.097 160.742 163.624C159.994 155.963 167.021 150.001 174.667 150.131C178.728 150.203 181.666 152.046 183.682 154.797" fill="#F9EFE3"/>
<path d="M176.237 178.096C176.237 178.096 176.15 178.096 176.107 178.096C167.914 177.952 161.477 171.097 160.742 163.624C159.994 155.963 167.021 150.001 174.667 150.131C178.728 150.203 181.666 152.046 183.682 154.797" stroke="#080808" stroke-width="0.72" stroke-miterlimit="10"/>
<path d="M219.682 213.665C219.682 211.778 219.855 209.834 220.546 208.063C220.877 206.724 221.439 205.471 222.389 204.535V204.406C214.512 210.209 201.466 208.409 199.047 205.356C203.928 213.492 211.632 216.761 219.999 218.129C219.84 216.646 219.696 215.162 219.696 213.679L219.682 213.665Z" fill="black"/>
<path d="M172.195 157.374C175.032 157.547 177.739 159.232 179.122 161.709C180.504 164.185 180.547 167.368 179.222 169.888" stroke="#1C1C1B" stroke-width="1.08" stroke-miterlimit="10"/>
<path d="M291.036 362.847C321.146 372.884 323.666 375.303 334.495 376.182C348.866 350.247 361.74 323.478 377.09 298.105C333.256 265.402 289.293 249.894 235.984 242.002" fill="#FF8D1D"/>
<path d="M291.036 362.847C321.146 372.884 323.666 375.303 334.495 376.182C348.866 350.247 361.74 323.478 377.09 298.105C333.256 265.402 289.293 249.894 235.984 242.002" stroke="black" stroke-width="1.44" stroke-miterlimit="10"/>
<path d="M-14.9356 409.865C11.8196 399.555 127.682 346.189 96.4484 302.6C90.9764 294.953 81.3572 291.051 71.9684 290.633C62.5796 290.216 53.306 292.865 44.522 296.192C15.074 307.323 -11.1484 326.59 -31.0204 350.955C-39.8044 361.712 -76.5964 415.654 -37.6588 413.84C-29.6236 413.465 -22.438 412.774 -14.9356 409.88V409.865Z" fill="#F9EFE3" stroke="#1C1C1B" stroke-width="0.72" stroke-miterlimit="10"/>
<path d="M150.736 243.571C97.8447 256.157 54.3279 269.866 11.0703 301.186C21.7407 323.837 39.9279 366.547 50.5983 389.198C87.9663 375.979 70.6575 382.661 108.026 369.427" fill="#FF8D1D"/>
<path d="M150.736 243.571C97.8447 256.157 54.3279 269.866 11.0703 301.186C21.7407 323.837 39.9279 366.547 50.5983 389.198C87.9663 375.979 70.6575 382.661 108.026 369.427" stroke="black" stroke-width="1.44" stroke-miterlimit="10"/>
<path d="M208.953 180.471C210.292 185.454 215.707 188.377 220.862 188.291C227.745 188.19 230.928 184.835 232.713 179.463L208.968 180.471H208.953Z" fill="#F9EFE3" stroke="black" stroke-width="1.08" stroke-miterlimit="10"/>
<path d="M142.891 245.805C152.495 259.442 164.735 271.912 180.259 278.565C193.19 284.095 206.74 284.052 216.575 273.122C223.142 265.836 228.297 256.634 232.833 248.023C233.884 246.021 234.935 244.02 235.987 242.018" stroke="black" stroke-width="1.08" stroke-miterlimit="10"/>
<path d="M215.737 224.362C215.276 228.725 215.564 233.16 216.586 237.408L215.737 224.362Z" fill="white"/>
<path d="M215.737 224.362C215.276 228.725 215.564 233.16 216.586 237.408" stroke="#1C1C1B" stroke-width="0.72" stroke-miterlimit="10"/>
<path d="M218.1 240.406C218.028 241.673 218.575 242.954 219.526 243.79L218.1 240.406Z" fill="white"/>
<path d="M218.1 240.406C218.028 241.673 218.575 242.954 219.526 243.79" stroke="#1C1C1B" stroke-width="0.72" stroke-miterlimit="10"/>
<path d="M187.172 194.454C189.663 196.686 192.14 198.932 194.631 201.164L187.172 194.454Z" fill="white"/>
<path d="M187.172 194.454C189.663 196.686 192.14 198.932 194.631 201.164" stroke="#1C1C1B" stroke-width="0.72" stroke-miterlimit="10"/>
<path d="M375.563 333.531C375.664 334.87 389.473 324.862 392.8 317.864C402.332 282.901 419.54 245.518 429.808 210.958C432.414 202.203 433.048 193.491 430.614 182.864C429.606 178.486 430.643 173.936 430.888 169.443C431.089 165.67 429.98 161.984 430.153 158.283C430.225 156.699 431.017 155.014 432.486 154.424C434.214 153.733 436.244 154.813 437.238 156.382C438.232 157.952 438.462 159.882 438.664 161.725C438.865 163.554 439.052 165.382 439.254 167.211C439.326 167.931 439.427 168.709 439.888 169.256C441.097 170.725 443.516 169.602 444.726 168.133C450.558 161.019 454.014 131.341 469.609 139.275C473.684 141.349 475.542 146.187 476.118 150.723C478.22 167.053 469.134 186.464 461.473 200.446C460.192 202.794 458.824 205.126 458.017 207.675C457.124 210.526 456.966 213.536 456.808 216.517C456.088 230.24 455.411 243.963 454.648 257.686C453.985 269.466 453.222 282.022 451.35 293.773C448.312 312.896 445.518 332.667 440.622 351.301C438.016 361.237 429.635 376.99 422.032 383.902C413.392 391.765 383.872 384.982 372.352 381.022" fill="#F9EFE3"/>
<path d="M375.563 333.531C375.664 334.87 389.473 324.862 392.8 317.864C402.332 282.901 419.54 245.518 429.808 210.958C432.414 202.203 433.048 193.491 430.614 182.864C429.606 178.486 430.643 173.936 430.888 169.443C431.089 165.67 429.98 161.984 430.153 158.283C430.225 156.699 431.017 155.014 432.486 154.424C434.214 153.733 436.244 154.813 437.238 156.382C438.232 157.952 438.462 159.882 438.664 161.725C438.865 163.554 439.052 165.382 439.254 167.211C439.326 167.931 439.427 168.709 439.888 169.256C441.097 170.725 443.516 169.602 444.726 168.133C450.558 161.019 454.014 131.341 469.609 139.275C473.684 141.349 475.542 146.187 476.118 150.723C478.22 167.053 469.134 186.464 461.473 200.446C460.192 202.794 458.824 205.126 458.017 207.675C457.124 210.526 456.966 213.536 456.808 216.517C456.088 230.24 455.411 243.963 454.648 257.686C453.985 269.466 453.222 282.022 451.35 293.773C448.312 312.896 445.518 332.667 440.622 351.301C438.016 361.237 429.635 376.99 422.032 383.902C413.392 391.765 383.872 384.982 372.352 381.022" stroke="black" stroke-width="1.1808" stroke-miterlimit="10"/>
<path d="M426.738 184.66C450.653 184.66 470.039 165.274 470.039 141.36C470.039 117.445 450.653 98.0588 426.738 98.0588C402.824 98.0588 383.438 117.445 383.438 141.36C383.438 165.274 402.824 184.66 426.738 184.66Z" fill="black"/>
<path d="M418.391 182.2C394.343 182.2 374.773 162.631 374.773 138.583C374.773 114.535 394.343 94.965 418.391 94.965C442.439 94.965 462.009 114.535 462.009 138.583C462.009 162.631 442.439 182.2 418.391 182.2Z" fill="#FF8D1D"/>
<path d="M418.389 95.281C442.307 95.281 461.69 114.663 461.69 138.582C461.69 162.5 442.307 181.883 418.389 181.883C394.47 181.883 375.088 162.5 375.088 138.582C375.088 114.663 394.47 95.281 418.389 95.281ZM418.389 94.6618C394.168 94.6618 374.469 114.361 374.469 138.582C374.469 162.803 394.168 182.502 418.389 182.502C442.61 182.502 462.309 162.803 462.309 138.582C462.309 114.361 442.61 94.6618 418.389 94.6618Z" fill="black"/>
<path d="M426.446 122.553L408.658 154.669C408.296 155.322 408.209 156.093 408.415 156.811C408.621 157.53 409.104 158.136 409.758 158.498C410.411 158.861 411.182 158.948 411.9 158.742C412.618 158.536 413.225 158.053 413.587 157.399L431.376 125.285C431.721 124.633 431.797 123.871 431.587 123.163C431.376 122.456 430.897 121.859 430.251 121.501C429.606 121.143 428.845 121.053 428.134 121.25C427.422 121.446 426.816 121.914 426.446 122.553ZM406.574 129.301C406.07 129.445 405.599 129.687 405.189 130.013C404.778 130.339 404.436 130.743 404.181 131.201C403.927 131.66 403.765 132.164 403.705 132.684C403.645 133.205 403.689 133.733 403.833 134.237C403.977 134.741 404.219 135.212 404.545 135.622C404.872 136.033 405.275 136.375 405.734 136.63C406.192 136.884 406.696 137.046 407.217 137.106C407.738 137.165 408.265 137.122 408.77 136.978C409.788 136.686 410.648 136.003 411.162 135.077C411.676 134.151 411.801 133.059 411.51 132.041C411.219 131.023 410.536 130.163 409.61 129.649C408.684 129.135 407.592 129.009 406.574 129.301ZM431.27 142.979C430.252 143.27 429.391 143.954 428.877 144.88C428.363 145.805 428.238 146.897 428.529 147.915C428.82 148.933 429.504 149.794 430.429 150.308C431.355 150.822 432.447 150.947 433.465 150.656C433.969 150.512 434.44 150.27 434.851 149.944C435.261 149.618 435.604 149.214 435.858 148.756C436.113 148.297 436.274 147.793 436.334 147.272C436.394 146.751 436.35 146.224 436.206 145.72C436.062 145.216 435.82 144.745 435.494 144.334C435.168 143.924 434.764 143.582 434.306 143.327C433.847 143.073 433.343 142.911 432.822 142.851C432.301 142.791 431.774 142.835 431.27 142.979Z" fill="black"/>
<path d="M437.947 193.488C436.954 186.015 436.003 172.306 435.802 171.399C435.37 169.44 434.722 167.482 433.843 165.725C432.951 163.954 432.058 162.111 432.605 159.893C433.066 158.007 434.967 155.89 437.299 155.429C439.301 155.04 440.971 155.948 441.778 157.215C443.65 160.167 444.01 163.882 445.954 166.877C448.258 170.434 450.634 174.437 453.168 177.994" fill="#F9EFE3"/>
<path d="M437.947 193.488C436.954 186.015 436.003 172.306 435.802 171.399C435.37 169.44 434.722 167.482 433.843 165.725C432.951 163.954 432.058 162.111 432.605 159.893C433.066 158.007 434.967 155.89 437.299 155.429C439.301 155.04 440.971 155.948 441.778 157.215C443.65 160.167 444.01 163.882 445.954 166.877C448.258 170.434 450.634 174.437 453.168 177.994" stroke="black" stroke-width="1.4256" stroke-miterlimit="10"/>
</g>
<path d="M526.178 94.9963L513.065 111.93C512.389 113.063 512 114.386 512 115.799V192.023C512 196.215 515.411 199.608 519.613 199.608L592.115 199.339C593.067 199.399 596.801 199.518 598.585 197.747C601.918 194.426 614.158 184.827 614.158 184.827" fill="#F9EFE3"/>
<path d="M526.178 94.9963L513.065 111.93C512.389 113.063 512 114.386 512 115.799V192.023C512 196.215 515.411 199.608 519.613 199.608L592.115 199.339C593.067 199.399 596.801 199.518 598.585 197.747C601.918 194.426 614.158 184.827 614.158 184.827" stroke="#1C1C1B" stroke-width="1.12" stroke-miterlimit="10"/>
<path d="M611.545 94.3995H527.671C526.088 94.3995 524.805 95.6782 524.805 97.2555V182.936C524.805 184.513 526.088 185.792 527.671 185.792H611.545C613.128 185.792 614.412 184.513 614.412 182.936V97.2555C614.412 95.6782 613.128 94.3995 611.545 94.3995Z" fill="#F9EFE3" stroke="#1C1C1B" stroke-width="1.12" stroke-miterlimit="10"/>
<path d="M524.985 184.832L513.781 196.775" stroke="#1C1C1B" stroke-width="1.12" stroke-miterlimit="10"/>
<path d="M610.276 157.842C610.372 162.677 610.276 167.513 609.977 172.342" stroke="#1C1C1B" stroke-width="1.12" stroke-miterlimit="10"/>
<path d="M609.716 175.901C609.518 176.789 609.315 177.678 609.117 178.56" stroke="#1C1C1B" stroke-width="1.12" stroke-miterlimit="10"/>
<path d="M605.227 181.303C603.144 181.487 601.067 181.678 598.984 181.863" stroke="#1C1C1B" stroke-width="1.12" stroke-miterlimit="10"/>
<path d="M557.546 166.471C565.058 166.739 571.368 160.996 571.639 153.646C571.911 146.296 566.042 140.12 558.531 139.853C551.019 139.586 544.709 145.328 544.437 152.678C544.165 160.029 550.034 166.204 557.546 166.471Z" fill="#090909"/>
<path d="M555.026 165.92C547.389 165.649 541.405 159.261 541.686 151.679C541.967 144.097 548.408 138.151 556.045 138.422C563.682 138.693 569.666 145.081 569.385 152.663C569.104 160.245 562.663 166.191 555.026 165.92Z" fill="#FF8D1D"/>
<path d="M556.03 138.748C563.5 139.014 569.335 145.243 569.061 152.66C568.786 160.076 562.505 165.875 555.034 165.61C547.564 165.344 541.728 159.115 542.003 151.699C542.278 144.282 548.559 138.483 556.03 138.748ZM556.053 138.111C548.243 137.834 541.649 143.916 541.362 151.676C541.074 159.436 547.194 165.969 555.011 166.247C562.827 166.524 569.415 160.443 569.702 152.682C569.99 144.922 563.87 138.389 556.053 138.111Z" fill="#090909"/>
<path d="M555.345 156.076L550.864 155.917C550.478 155.903 550.188 155.592 550.202 155.208C550.216 154.824 550.529 154.534 550.915 154.548L555.395 154.707C557.21 154.771 558.776 153.347 558.844 151.512C558.912 149.677 557.483 148.147 555.641 148.082L551.16 147.922C550.774 147.909 550.484 147.597 550.498 147.213C550.512 146.829 550.825 146.539 551.211 146.553L555.691 146.712C558.275 146.804 560.314 148.987 560.218 151.561C560.123 154.135 557.929 156.168 555.345 156.076Z" fill="#090909"/>
<path d="M558.226 160.862C558.006 160.855 557.79 160.739 557.688 160.543L554.694 155.968C554.485 155.66 554.583 155.224 554.895 155.016C555.205 154.807 555.642 154.904 555.851 155.215L558.844 159.817C559.053 160.125 558.955 160.56 558.643 160.769C558.501 160.845 558.364 160.867 558.226 160.862Z" fill="#090909"/>
<path d="M562.071 148.344L555.637 148.114C555.251 148.101 554.96 147.789 554.975 147.404C554.989 147.019 555.302 146.728 555.688 146.742L562.122 146.971C562.508 146.985 562.799 147.297 562.784 147.682C562.77 148.067 562.457 148.357 562.071 148.344Z" fill="#090909"/>
<path d="M561.974 151.026L550.973 150.633C550.587 150.62 550.296 150.307 550.311 149.922C550.325 149.536 550.638 149.245 551.024 149.259L562.022 149.651C562.408 149.665 562.699 149.977 562.685 150.363C562.671 150.749 562.358 151.039 561.972 151.025L561.974 151.026Z" fill="#090909"/>
<path d="M587.163 164.88C594.675 165.147 600.985 159.405 601.257 152.054C601.529 144.704 595.66 138.528 588.148 138.261C580.636 137.994 574.326 143.736 574.054 151.086C573.783 158.437 579.652 164.612 587.163 164.88Z" fill="#090909"/>
<path d="M584.643 164.328C577.006 164.057 571.022 157.669 571.303 150.087C571.584 142.505 578.025 136.559 585.662 136.83C593.299 137.101 599.283 143.489 599.002 151.071C598.721 158.653 592.28 164.6 584.643 164.328Z" fill="#FF8D1D"/>
<path d="M585.647 137.157C593.117 137.422 598.953 143.652 598.678 151.068C598.403 158.484 592.122 164.283 584.651 164.018C577.181 163.752 571.346 157.523 571.62 150.107C571.895 142.691 578.177 136.891 585.647 137.157ZM585.67 136.52C577.86 136.242 571.266 142.324 570.979 150.084C570.691 157.844 576.811 164.377 584.628 164.655C592.445 164.933 599.032 158.851 599.32 151.091C599.607 143.33 593.487 136.797 585.67 136.52Z" fill="#090909"/>
<path d="M584.962 154.485L580.481 154.325C580.095 154.312 579.805 154.001 579.819 153.616C579.833 153.232 580.146 152.942 580.532 152.956L585.012 153.115C586.827 153.18 588.393 151.756 588.461 149.921C588.529 148.086 587.1 146.555 585.258 146.49L580.777 146.33C580.392 146.317 580.101 146.006 580.115 145.621C580.13 145.237 580.442 144.947 580.828 144.961L585.309 145.12C587.892 145.212 589.931 147.396 589.836 149.97C589.74 152.543 587.546 154.576 584.962 154.485Z" fill="#090909"/>
<path d="M587.843 159.272C587.623 159.264 587.407 159.148 587.305 158.952L584.311 154.378C584.102 154.07 584.2 153.634 584.512 153.426C584.822 153.217 585.259 153.314 585.468 153.625L588.461 158.227C588.67 158.535 588.572 158.97 588.26 159.179C588.118 159.255 587.981 159.277 587.843 159.272Z" fill="#090909"/>
<path d="M591.688 146.752L585.254 146.523C584.868 146.509 584.578 146.197 584.592 145.812C584.606 145.427 584.919 145.136 585.305 145.15L591.739 145.379C592.125 145.393 592.416 145.705 592.402 146.09C592.387 146.475 592.074 146.765 591.688 146.752Z" fill="#090909"/>
<path d="M591.592 149.434L580.59 149.042C580.204 149.028 579.914 148.716 579.928 148.33C579.942 147.944 580.255 147.654 580.641 147.667L591.64 148.059C592.026 148.073 592.316 148.385 592.302 148.771C592.288 149.157 591.975 149.447 591.589 149.434L591.592 149.434Z" fill="#090909"/>
<path d="M569.702 141.993C577.214 142.26 583.524 136.518 583.796 129.168C584.068 121.817 578.199 115.642 570.687 115.375C563.175 115.108 556.865 120.85 556.594 128.2C556.322 135.551 562.191 141.726 569.702 141.993Z" fill="#090909"/>
<path d="M567.182 141.439C559.545 141.168 553.561 134.78 553.842 127.198C554.123 119.616 560.564 113.669 568.201 113.941C575.838 114.212 581.822 120.6 581.541 128.182C581.26 135.763 574.819 141.71 567.182 141.439Z" fill="#FF8D1D"/>
<path d="M568.186 114.266C575.656 114.531 581.492 120.761 581.217 128.177C580.942 135.593 574.661 141.392 567.19 141.127C559.72 140.861 553.885 134.632 554.16 127.216C554.434 119.8 560.716 114 568.186 114.266ZM568.209 113.629C560.399 113.351 553.805 119.433 553.518 127.193C553.23 134.953 559.35 141.486 567.167 141.764C574.984 142.042 581.571 135.96 581.859 128.2C582.146 120.439 576.026 113.906 568.209 113.629Z" fill="#090909"/>
<path d="M567.501 131.597L563.02 131.438C562.635 131.424 562.344 131.113 562.358 130.729C562.373 130.344 562.685 130.055 563.071 130.068L567.552 130.228C569.367 130.292 570.932 128.868 571 127.033C571.068 125.198 569.639 123.668 567.797 123.602L563.316 123.443C562.931 123.429 562.64 123.118 562.654 122.734C562.669 122.349 562.981 122.06 563.367 122.073L567.848 122.233C570.432 122.325 572.47 124.508 572.375 127.082C572.279 129.656 570.085 131.689 567.501 131.597Z" fill="#090909"/>
<path d="M570.382 136.385C570.162 136.377 569.946 136.261 569.844 136.065L566.85 131.49C566.641 131.182 566.739 130.747 567.051 130.538C567.361 130.33 567.798 130.426 568.007 130.737L571 135.339C571.209 135.647 571.111 136.083 570.799 136.291C570.657 136.367 570.52 136.39 570.382 136.385Z" fill="#090909"/>
<path d="M574.227 123.864L567.793 123.635C567.407 123.621 567.117 123.31 567.131 122.924C567.145 122.539 567.458 122.249 567.844 122.263L574.278 122.492C574.664 122.505 574.955 122.817 574.941 123.202C574.926 123.588 574.613 123.878 574.227 123.864Z" fill="#090909"/>
<path d="M574.131 126.548L563.129 126.156C562.743 126.142 562.453 125.83 562.467 125.444C562.481 125.058 562.794 124.768 563.18 124.781L574.179 125.173C574.565 125.187 574.855 125.499 574.841 125.885C574.827 126.271 574.514 126.561 574.128 126.548L574.131 126.548Z" fill="#090909"/>
<rect x="519.017" y="226.822" width="231.511" height="147.709" rx="13.6398" fill="#090909" stroke="#090909" stroke-width="0.940678"/>
<rect x="512.47" y="218.471" width="231.511" height="147.709" rx="13.6398" fill="#F9EFE3" stroke="#090909" stroke-width="0.940678"/>
<path d="M558.937 341.317C558.626 341.317 558.373 341.569 558.373 341.881C558.373 342.193 558.626 342.445 558.938 342.445L558.937 341.317ZM597.908 342.28C598.129 342.06 598.129 341.702 597.908 341.482L594.316 337.89C594.096 337.67 593.738 337.67 593.518 337.89C593.298 338.11 593.298 338.468 593.518 338.688L596.711 341.881L593.518 345.074C593.298 345.294 593.298 345.652 593.518 345.872C593.738 346.092 594.096 346.092 594.316 345.872L597.908 342.28ZM558.938 341.881L558.938 342.445L597.509 342.445L597.509 341.881L597.509 341.317L558.937 341.317L558.938 341.881Z" fill="#090909"/>
<path d="M550.141 341.881L543.081 341.881" stroke="black" stroke-width="0.940678" stroke-linecap="round"/>
<path d="M650.227 340.899C649.915 340.899 649.662 341.151 649.662 341.463C649.662 341.775 649.915 342.028 650.227 342.028L650.227 340.899ZM716.179 341.862C716.4 341.642 716.4 341.285 716.179 341.064L712.587 337.472C712.367 337.252 712.01 337.252 711.789 337.472C711.569 337.693 711.569 338.05 711.789 338.27L714.982 341.463L711.789 344.656C711.569 344.876 711.569 345.234 711.789 345.454C712.01 345.675 712.367 345.675 712.587 345.454L716.179 341.862ZM650.227 341.463L650.227 342.028L715.78 342.028L715.78 341.463L715.78 340.899L650.227 340.899L650.227 341.463Z" fill="#090909"/>
<path d="M643.859 341.463L630.968 341.463" stroke="black" stroke-width="0.940678" stroke-linecap="round"/>
<path d="M624.422 341.463L621.455 341.463" stroke="black" stroke-width="0.940678" stroke-linecap="round"/>
<path d="M568.007 260.341C567.668 259.562 567.149 258.952 566.449 258.512C565.761 258.06 564.948 257.835 564.011 257.835C563.131 257.835 562.34 258.038 561.641 258.444C560.941 258.851 560.388 259.432 559.981 260.188C559.575 260.933 559.372 261.802 559.372 262.796C559.372 263.789 559.575 264.664 559.981 265.42C560.388 266.177 560.941 266.758 561.641 267.164C562.34 267.571 563.131 267.774 564.011 267.774C564.835 267.774 565.574 267.599 566.229 267.249C566.895 266.888 567.426 266.38 567.821 265.725C568.227 265.059 568.459 264.286 568.515 263.405H563.537V262.44H569.768V263.304C569.712 264.342 569.429 265.285 568.921 266.131C568.413 266.967 567.73 267.627 566.873 268.113C566.026 268.598 565.072 268.841 564.011 268.841C562.916 268.841 561.923 268.587 561.031 268.079C560.139 267.559 559.434 266.843 558.914 265.928C558.406 265.003 558.152 263.958 558.152 262.796C558.152 261.633 558.406 260.595 558.914 259.68C559.434 258.755 560.139 258.038 561.031 257.53C561.923 257.011 562.916 256.751 564.011 256.751C565.275 256.751 566.382 257.067 567.33 257.699C568.278 258.331 568.967 259.212 569.395 260.341H568.007ZM580.304 263.625C580.304 264.032 580.292 264.342 580.27 264.557H572.6C572.633 265.257 572.803 265.855 573.107 266.352C573.412 266.848 573.813 267.226 574.31 267.486C574.806 267.734 575.348 267.859 575.935 267.859C576.703 267.859 577.346 267.672 577.865 267.3C578.396 266.927 578.746 266.425 578.915 265.793H580.168C579.942 266.696 579.457 267.435 578.712 268.011C577.978 268.575 577.053 268.858 575.935 268.858C575.066 268.858 574.287 268.666 573.599 268.282C572.91 267.887 572.368 267.334 571.973 266.622C571.589 265.9 571.397 265.059 571.397 264.1C571.397 263.14 571.589 262.299 571.973 261.577C572.357 260.854 572.893 260.301 573.582 259.917C574.27 259.534 575.055 259.342 575.935 259.342C576.816 259.342 577.583 259.534 578.238 259.917C578.904 260.301 579.412 260.82 579.762 261.475C580.123 262.119 580.304 262.835 580.304 263.625ZM579.101 263.592C579.113 262.903 578.972 262.316 578.678 261.831C578.396 261.345 578.007 260.978 577.51 260.73C577.013 260.482 576.471 260.358 575.884 260.358C575.004 260.358 574.253 260.64 573.632 261.204C573.012 261.769 572.667 262.564 572.6 263.592H579.101ZM584.013 260.476V266.216C584.013 266.781 584.12 267.17 584.335 267.384C584.549 267.599 584.927 267.706 585.469 267.706H586.553V268.722H585.283C584.448 268.722 583.827 268.53 583.42 268.146C583.014 267.751 582.811 267.108 582.811 266.216V260.476H581.524V259.477H582.811V257.157H584.013V259.477H586.553V260.476H584.013ZM593.747 257.733C593.51 257.733 593.306 257.648 593.137 257.479C592.968 257.31 592.883 257.101 592.883 256.853C592.883 256.604 592.968 256.401 593.137 256.243C593.306 256.074 593.51 255.989 593.747 255.989C593.984 255.989 594.187 256.074 594.356 256.243C594.526 256.401 594.61 256.604 594.61 256.853C594.61 257.101 594.526 257.31 594.356 257.479C594.187 257.648 593.984 257.733 593.747 257.733ZM594.339 259.477V268.722H593.154V259.477H594.339ZM598.564 260.476V266.216C598.564 266.781 598.671 267.17 598.886 267.384C599.1 267.599 599.478 267.706 600.02 267.706H601.104V268.722H599.834C598.999 268.722 598.378 268.53 597.971 268.146C597.565 267.751 597.362 267.108 597.362 266.216V260.476H596.075V259.477H597.362V257.157H598.564V259.477H601.104V260.476H598.564ZM611.346 260.476H609.195V268.722H608.01V260.476H606.723V259.477H608.01V258.834C608.01 257.829 608.264 257.09 608.772 256.616C609.291 256.141 610.126 255.904 611.278 255.904V256.92C610.51 256.92 609.968 257.067 609.652 257.361C609.348 257.654 609.195 258.145 609.195 258.834V259.477H611.346V260.476ZM617.258 268.858C616.389 268.858 615.604 268.666 614.905 268.282C614.216 267.887 613.669 267.334 613.262 266.622C612.867 265.9 612.67 265.059 612.67 264.1C612.67 263.14 612.873 262.305 613.279 261.594C613.685 260.871 614.239 260.318 614.938 259.934C615.638 259.539 616.423 259.342 617.292 259.342C618.161 259.342 618.946 259.539 619.646 259.934C620.357 260.318 620.91 260.871 621.305 261.594C621.711 262.305 621.915 263.14 621.915 264.1C621.915 265.048 621.711 265.883 621.305 266.606C620.899 267.328 620.34 267.887 619.629 268.282C618.918 268.666 618.127 268.858 617.258 268.858ZM617.258 267.825C617.868 267.825 618.432 267.689 618.951 267.418C619.471 267.136 619.888 266.718 620.204 266.165C620.532 265.601 620.695 264.912 620.695 264.1C620.695 263.287 620.537 262.604 620.221 262.051C619.905 261.486 619.488 261.069 618.968 260.798C618.449 260.516 617.885 260.374 617.275 260.374C616.666 260.374 616.101 260.516 615.582 260.798C615.063 261.069 614.645 261.486 614.329 262.051C614.024 262.604 613.872 263.287 613.872 264.1C613.872 264.912 614.024 265.601 614.329 266.165C614.645 266.718 615.057 267.136 615.565 267.418C616.084 267.689 616.649 267.825 617.258 267.825ZM625.26 261.12C625.52 260.544 625.915 260.098 626.446 259.782C626.987 259.466 627.648 259.308 628.427 259.308V260.544H628.105C627.247 260.544 626.559 260.775 626.039 261.238C625.52 261.701 625.26 262.474 625.26 263.558V268.722H624.075V259.477H625.26V261.12Z" fill="black"/>
<path d="M640.537 249.332V247.436H645.655V269.019H643.517V249.332H640.537ZM649.327 249.332V247.436H654.444V269.019H652.307V249.332H649.327ZM659.14 258.032C659.14 254.58 659.671 251.901 660.735 249.995C661.799 248.088 663.705 247.135 666.454 247.135C669.204 247.135 671.11 248.088 672.174 249.995C673.237 251.901 673.769 254.58 673.769 258.032C673.769 261.544 673.237 264.263 672.174 266.189C671.11 268.116 669.204 269.079 666.454 269.079C663.685 269.079 661.768 268.116 660.705 266.189C659.661 264.263 659.14 261.544 659.14 258.032ZM671.692 258.032C671.692 256.166 671.562 254.59 671.301 253.306C671.04 252.022 670.528 250.988 669.766 250.205C669.003 249.423 667.899 249.031 666.454 249.031C665.009 249.031 663.906 249.423 663.143 250.205C662.381 250.988 661.869 252.022 661.608 253.306C661.347 254.59 661.217 256.166 661.217 258.032C661.217 259.958 661.347 261.574 661.608 262.878C661.869 264.163 662.381 265.196 663.143 265.979C663.906 266.761 665.009 267.153 666.454 267.153C667.899 267.153 669.003 266.761 669.766 265.979C670.528 265.196 671.04 264.163 671.301 262.878C671.562 261.574 671.692 259.958 671.692 258.032ZM677.689 258.032C677.689 254.58 678.22 251.901 679.284 249.995C680.348 248.088 682.254 247.135 685.003 247.135C687.753 247.135 689.659 248.088 690.723 249.995C691.786 251.901 692.318 254.58 692.318 258.032C692.318 261.544 691.786 264.263 690.723 266.189C689.659 268.116 687.753 269.079 685.003 269.079C682.234 269.079 680.317 268.116 679.254 266.189C678.21 264.263 677.689 261.544 677.689 258.032ZM690.241 258.032C690.241 256.166 690.111 254.59 689.85 253.306C689.589 252.022 689.077 250.988 688.315 250.205C687.552 249.423 686.448 249.031 685.003 249.031C683.558 249.031 682.455 249.423 681.692 250.205C680.93 250.988 680.418 252.022 680.157 253.306C679.896 254.59 679.766 256.166 679.766 258.032C679.766 259.958 679.896 261.574 680.157 262.878C680.418 264.163 680.93 265.196 681.692 265.979C682.455 266.761 683.558 267.153 685.003 267.153C686.448 267.153 687.552 266.761 688.315 265.979C689.077 265.196 689.589 264.163 689.85 262.878C690.111 261.574 690.241 259.958 690.241 258.032Z" fill="black"/>
<line x1="630.642" y1="270.81" x2="702.908" y2="243.069" stroke="black" stroke-width="2"/>
<path d="M566.489 307.087L555.93 307.145C555.021 307.15 554.306 306.444 554.301 305.534C554.296 304.625 555.003 303.91 555.912 303.905L566.471 303.847C570.749 303.823 574.29 300.307 574.266 295.966C574.242 291.625 570.726 288.148 566.385 288.172L555.825 288.23C554.916 288.235 554.201 287.528 554.196 286.619C554.191 285.71 554.898 284.995 555.808 284.99L566.367 284.932C572.456 284.898 577.472 289.859 577.506 295.948C577.54 302.037 572.579 307.053 566.489 307.087Z" fill="#090909"/>
<path d="M573.736 318.126C573.217 318.128 572.697 317.875 572.438 317.422L564.933 306.904C564.41 306.196 564.597 305.158 565.311 304.635C566.019 304.113 567.057 304.299 567.58 305.013L575.086 315.595C575.608 316.303 575.422 317.341 574.708 317.864C574.382 318.058 574.062 318.124 573.736 318.126Z" fill="#090909"/>
<path d="M581.553 288.156L566.396 288.24C565.487 288.245 564.772 287.538 564.767 286.629C564.762 285.719 565.469 285.005 566.378 285L581.535 284.916C582.444 284.911 583.159 285.618 583.164 286.527C583.169 287.436 582.462 288.151 581.553 288.156Z" fill="#090909"/>
<path d="M581.584 294.506L555.669 294.649C554.76 294.654 554.045 293.947 554.04 293.038C554.035 292.129 554.742 291.414 555.651 291.409L581.559 291.266C582.469 291.261 583.183 291.967 583.188 292.877C583.193 293.786 582.487 294.501 581.577 294.506L581.584 294.506Z" fill="#090909"/>
<path d="M707.004 300.428V304.46H689.742V300.428H707.004Z" fill="black"/>
<path d="M683.206 278L671.782 324.998H667.078L678.46 278H683.206Z" fill="black"/>
<path d="M646.336 309.332C646.616 310.732 647.218 311.796 648.142 312.524C649.066 313.252 650.312 313.616 651.88 313.616C653.868 313.616 655.324 312.832 656.248 311.264C657.172 309.696 657.634 307.022 657.634 303.242C656.962 304.194 656.01 304.936 654.778 305.468C653.574 305.972 652.258 306.224 650.83 306.224C649.01 306.224 647.358 305.86 645.874 305.132C644.39 304.376 643.214 303.27 642.346 301.814C641.506 300.33 641.086 298.538 641.086 296.438C641.086 293.358 641.982 290.908 643.774 289.088C645.594 287.24 648.086 286.316 651.25 286.316C655.058 286.316 657.76 287.59 659.356 290.138C660.98 292.658 661.792 296.536 661.792 301.772C661.792 305.384 661.484 308.338 660.868 310.634C660.28 312.93 659.244 314.666 657.76 315.842C656.276 317.018 654.218 317.606 651.586 317.606C648.59 317.606 646.28 316.822 644.656 315.254C643.032 313.686 642.122 311.712 641.926 309.332H646.336ZM651.67 302.192C653.35 302.192 654.666 301.674 655.618 300.638C656.598 299.574 657.088 298.174 657.088 296.438C657.088 294.506 656.57 293.008 655.534 291.944C654.526 290.852 653.14 290.306 651.376 290.306C649.612 290.306 648.212 290.866 647.176 291.986C646.168 293.078 645.664 294.52 645.664 296.312C645.664 298.02 646.154 299.434 647.134 300.554C648.142 301.646 649.654 302.192 651.67 302.192Z" fill="black"/>
<path d="M619.68 309.332C619.96 310.732 620.562 311.796 621.486 312.524C622.41 313.252 623.656 313.616 625.224 313.616C627.212 313.616 628.668 312.832 629.592 311.264C630.516 309.696 630.978 307.022 630.978 303.242C630.306 304.194 629.354 304.936 628.122 305.468C626.918 305.972 625.602 306.224 624.174 306.224C622.354 306.224 620.702 305.86 619.218 305.132C617.734 304.376 616.558 303.27 615.69 301.814C614.85 300.33 614.43 298.538 614.43 296.438C614.43 293.358 615.326 290.908 617.118 289.088C618.938 287.24 621.43 286.316 624.594 286.316C628.402 286.316 631.104 287.59 632.7 290.138C634.324 292.658 635.136 296.536 635.136 301.772C635.136 305.384 634.828 308.338 634.212 310.634C633.624 312.93 632.588 314.666 631.104 315.842C629.62 317.018 627.562 317.606 624.93 317.606C621.934 317.606 619.624 316.822 618 315.254C616.376 313.686 615.466 311.712 615.27 309.332H619.68ZM625.014 302.192C626.694 302.192 628.01 301.674 628.962 300.638C629.942 299.574 630.432 298.174 630.432 296.438C630.432 294.506 629.914 293.008 628.878 291.944C627.87 290.852 626.484 290.306 624.72 290.306C622.956 290.306 621.556 290.866 620.52 291.986C619.512 293.078 619.008 294.52 619.008 296.312C619.008 298.02 619.498 299.434 620.478 300.554C621.486 301.646 622.998 302.192 625.014 302.192Z" fill="black"/>
<path d="M585.93 311.264V307.652L600.042 287.408H605.838V307.106H609.744V311.264H605.838V317.648H601.134V311.264H585.93ZM601.344 292.28L591.432 307.106H601.344V292.28Z" fill="black"/>
</svg>
