<svg width="650" height="359" viewBox="0 0 650 359" fill="none" xmlns="http://www.w3.org/2000/svg">
<circle cx="541.945" cy="107.688" r="107.688" fill="#1449FF"/>
<g clip-path="url(#clip0_40001856_10871)">
<mask id="mask0_40001856_10871" style="mask-type:luminance" maskUnits="userSpaceOnUse" x="408" y="80" width="191" height="177">
<path d="M598.437 80.2046H408.844V256.923H598.437V80.2046Z" fill="white"/>
</mask>
<g mask="url(#mask0_40001856_10871)">
<path d="M642.125 68.2827H378.484V283.376H642.125V68.2827Z" fill="#FF8D1D"/>
<path d="M641.875 68.5483V283.126H378.75V68.5483H641.875ZM642.391 68.0327H378.234V283.642H642.391V68.0327Z" fill="black"/>
<path d="M514.342 97.001C504.42 93.0635 486.764 92.5791 481.686 103.954C480.108 107.501 479.639 111.423 479.358 115.282C478.467 127.767 476.717 157.188 495.498 157.892C496.827 157.938 495.498 172.954 495.03 174.438C493.905 177.954 491.717 183.235 487.905 184.501C486.623 184.923 485.233 184.907 483.967 185.329C481.217 186.22 479.467 188.907 478.42 191.61C477.28 194.548 476.748 197.876 476.858 201.204C477.061 207.438 479.514 213.642 484.561 217.11C493.186 223.032 503.827 226.017 514.264 225.313C527.748 224.407 563.592 207.907 549.342 190.032C546.748 186.782 543.139 184.532 539.983 181.829C535.936 178.376 532.748 174.563 531.155 169.454C530.092 166.001 529.686 162.392 529.373 158.798C528.889 153.235 528.061 147.673 529.03 142.188C530.045 136.423 530.764 130.173 530.967 124.313C531.389 112.47 525.639 101.485 514.327 97.001H514.342Z" fill="#F9EFE3" stroke="black" stroke-width="0.78125" stroke-miterlimit="10"/>
<path d="M500.188 140.017C498.766 142.439 496.031 144.017 493.219 144.033C490.422 144.033 487.656 142.47 486.234 140.064L500.188 140.017Z" fill="white" stroke="black" stroke-width="0.78125" stroke-miterlimit="10"/>
<path d="M479.207 97.1419C479.004 97.6731 478.847 98.22 478.722 98.7981C476.176 111.314 490.051 108.017 496.66 110.033C498.988 110.736 501.051 112.251 503.441 112.673C505.863 113.111 508.332 112.408 510.785 112.22C522.066 111.408 528.035 126.361 528.316 135.642C528.394 137.986 526.816 140.626 527.347 142.892C527.613 144.033 528.832 145.033 529.926 144.642C530.566 144.408 530.988 143.798 531.332 143.189C533.66 139.048 534.222 134.158 535.847 129.689C537.332 125.579 539.738 121.783 540.707 117.517C542.269 110.673 539.879 103.314 535.457 97.8606C531.722 93.2513 525.722 88.5013 519.941 86.7981C514.082 85.0638 506.363 86.345 500.332 86.845C495.91 87.2044 491.41 87.595 487.347 89.345C483.816 90.8606 480.597 93.6106 479.238 97.1419H479.207Z" fill="black"/>
<path d="M418.266 295.72C418.938 300.205 419.891 304.611 421.188 308.923C425.313 322.642 433.548 339.064 446.923 345.83C456.204 350.533 466.907 352.314 477.079 353.939C497.313 357.189 518.501 360.376 537.923 353.845C551.704 349.22 563.454 340.048 574.532 330.626C582.626 323.736 590.704 316.408 595.594 306.97C599.657 299.126 601.282 290.267 602.438 281.501C604.438 266.22 605.126 250.533 601.532 235.533C598.751 223.876 594.266 211.486 585.579 202.923C579.001 196.439 570.594 192.501 562.048 189.298C553.751 186.189 544.298 184.048 537.032 178.83C537.704 179.314 534.782 187.236 534.344 188.048C532.344 191.751 529.376 194.939 525.766 197.111C519.438 200.923 511.298 201.517 504.485 198.673C498.094 196.017 490.548 188.908 491.251 181.314C487.141 184.392 482.032 185.986 477.219 187.595C472.157 189.283 467.032 190.751 461.938 192.314C452.626 195.173 443.094 198.47 435.673 205.001C422.735 216.408 419.094 234.955 417.798 252.158C416.719 266.392 416.094 281.345 418.266 295.673V295.72Z" fill="#708BF4" stroke="black" stroke-width="0.78125" stroke-miterlimit="10"/>
<path d="M526.203 133.923C529.609 134.877 533.578 132.814 534.766 129.47C537.375 122.142 525.656 116.72 523.391 123.767" fill="white"/>
<path d="M526.203 133.923C529.609 134.877 533.578 132.814 534.766 129.47C537.375 122.142 525.656 116.72 523.391 123.767" stroke="black" stroke-width="0.78125" stroke-miterlimit="10"/>
<path d="M507.048 218.08C505.345 235.877 503.642 253.674 501.939 271.47C501.595 275.095 501.33 279.049 503.392 282.033" stroke="#132152" stroke-width="0.78125" stroke-miterlimit="10"/>
<path d="M500.438 227.892C500.344 227.595 500.188 227.345 499.953 227.142C499.734 226.907 499.484 226.751 499.203 226.657C498.922 226.517 498.625 226.439 498.297 226.454C498.094 226.486 497.875 226.517 497.672 226.532C497.281 226.642 496.938 226.845 496.641 227.142C496.516 227.298 496.391 227.454 496.281 227.611C496.063 227.97 495.969 228.376 495.969 228.798V229.095C495.969 229.423 496.031 229.72 496.172 230.001C496.266 230.298 496.422 230.548 496.656 230.751C496.875 230.986 497.125 231.142 497.406 231.236C497.687 231.376 497.984 231.454 498.312 231.439C498.516 231.407 498.734 231.376 498.938 231.361C499.328 231.251 499.672 231.048 499.969 230.751L500.328 230.282C500.547 229.923 500.641 229.517 500.641 229.095V228.798C500.641 228.47 500.578 228.173 500.438 227.892Z" fill="black"/>
<path d="M495.363 244.938C492.348 244.938 492.348 249.626 495.363 249.626C498.379 249.626 498.379 244.938 495.363 244.938Z" fill="black"/>
<mask id="mask1_40001856_10871" style="mask-type:luminance" maskUnits="userSpaceOnUse" x="476" y="94" width="77" height="132">
<path d="M514.342 97C504.42 93.0625 486.764 92.5781 481.686 103.953C480.108 107.5 479.639 111.422 479.358 115.281C478.467 127.766 476.717 157.187 495.498 157.891C496.827 157.937 495.498 172.953 495.03 174.437C493.905 177.953 491.717 183.234 487.905 184.5C486.623 184.922 485.233 184.906 483.967 185.328C481.217 186.219 479.467 188.906 478.42 191.609C477.28 194.547 476.748 197.875 476.858 201.203C477.061 207.437 479.514 213.641 484.561 217.109C493.186 223.031 503.827 226.016 514.264 225.312C527.748 224.406 563.592 207.906 549.342 190.031C546.748 186.781 543.139 184.531 539.983 181.828C535.936 178.375 532.748 174.562 531.155 169.453C530.092 166 529.686 162.391 529.373 158.797C528.889 153.234 528.061 147.672 529.03 142.187C530.045 136.422 530.764 130.172 530.967 124.312C531.389 112.469 525.639 101.484 514.327 97H514.342Z" fill="white"/>
</mask>
<g mask="url(#mask1_40001856_10871)">
<path d="M505.215 155.875C504.168 155.344 502.293 156.25 501.403 156.594C499.278 157.406 496.996 157.813 494.731 157.797C494.34 157.797 493.934 157.781 493.559 157.906C493.184 158.031 492.84 158.344 492.809 158.735C492.762 159.172 493.106 159.563 493.45 159.844C494.512 160.766 495.481 161.219 496.809 161.485C497.996 161.719 499.168 162.266 500.403 162.281C502.481 162.313 505.075 161.422 505.825 159.281C506.106 158.469 506.184 156.703 505.481 156.063C505.403 155.984 505.309 155.922 505.215 155.875Z" fill="black"/>
</g>
<path d="M529.481 124.58C528.246 124.158 526.809 124.955 526.246 126.142C525.668 127.314 525.84 128.752 526.34 129.955" fill="white"/>
<path d="M529.481 124.58C528.246 124.158 526.809 124.955 526.246 126.142C525.668 127.314 525.84 128.752 526.34 129.955" stroke="black" stroke-width="0.78125" stroke-miterlimit="10"/>
<path d="M423.938 237.033C423.625 238.642 423.328 240.251 423.016 241.861" stroke="black" stroke-width="0.78125" stroke-miterlimit="10"/>
<path d="M422.468 245.642C422.014 247.486 421.827 249.407 421.952 251.314" stroke="black" stroke-width="0.78125" stroke-miterlimit="10"/>
</g>
<path d="M413.859 66.4548H593.547C596.328 66.4548 598.578 68.7048 598.578 71.4705V80.1892H408.844V71.4705C408.844 68.7048 411.094 66.4548 413.859 66.4548Z" fill="black"/>
<path d="M598.437 80.2046H408.844V256.923H598.437V80.2046Z" stroke="black" stroke-width="0.78125" stroke-miterlimit="10"/>
<path d="M418.127 261.33C412.924 260.377 407.361 262.534 402.143 262.627C397.096 262.705 390.424 262.205 385.908 259.69C383.174 258.159 381.221 255.83 380.564 252.69C380.346 251.643 380.314 250.471 380.939 249.596C381.346 249.018 381.986 248.659 382.627 248.377C391.814 244.268 402.533 249.705 411.799 244.409C413.564 243.393 415.939 242.893 417.252 241.252C418.783 239.33 418.908 236.659 418.549 234.237C418.189 231.815 417.408 229.44 417.393 226.987C417.361 224.565 418.096 222.143 419.455 220.143C419.705 219.768 420.002 219.393 420.408 219.19C421.283 218.752 422.408 219.299 422.908 220.127C424.033 221.971 422.58 223.69 422.705 225.643C422.877 228.315 424.58 230.846 426.205 232.877C428.783 236.096 430.158 240.049 432.564 243.362C435.002 246.705 438.752 249.362 441.893 252.049C449.033 258.159 456.424 263.987 464.033 269.502C458.752 275.409 452.564 280.502 445.768 284.565C445.471 284.737 445.158 284.924 444.814 284.909C444.424 284.893 444.096 284.612 443.799 284.346C439.096 280.174 434.814 275.471 430.314 271.034C427.783 268.534 425.049 264.549 421.971 262.768C420.705 262.034 419.408 261.596 418.096 261.362L418.127 261.33Z" fill="#F9EFE3" stroke="black" stroke-width="0.78125" stroke-miterlimit="10"/>
<path d="M538.062 224.174C530.562 239.862 522.625 255.393 514.781 270.877C512.812 274.783 508.266 286.471 503.844 288.033C499.266 289.643 487.469 279.502 483.594 276.924C476.344 272.112 469.297 267.002 462.469 261.612C455.625 270.237 447 277.424 437.281 282.596C448.078 294.721 459.266 306.596 471.875 316.862C478.188 322.002 484.859 326.737 491.969 330.705C504.719 337.83 518.328 342.268 530.734 331.783C538.25 325.424 544.844 317.393 551.75 310.346C561.641 300.252 571.797 290.315 580.297 278.987C591.563 263.955 599.469 247.221 598.562 227.971C598.484 226.283 598.359 225.596 598.078 223.924" fill="#708BF4"/>
<path d="M538.062 224.174C530.562 239.862 522.625 255.393 514.781 270.877C512.812 274.783 508.266 286.471 503.844 288.033C499.266 289.643 487.469 279.502 483.594 276.924C476.344 272.112 469.297 267.002 462.469 261.612C455.625 270.237 447 277.424 437.281 282.596C448.078 294.721 459.266 306.596 471.875 316.862C478.187 322.002 484.859 326.737 491.969 330.705C504.719 337.83 518.328 342.268 530.734 331.783C538.25 325.424 544.844 317.393 551.75 310.346C561.641 300.252 571.797 290.315 580.297 278.987C591.563 263.955 599.469 247.221 598.562 227.971C598.484 226.283 598.359 225.596 598.078 223.924" stroke="black" stroke-width="0.78125" stroke-miterlimit="10"/>
<path d="M529.578 327.112C526.547 330.346 522.375 332.487 517.984 333.049" stroke="black" stroke-width="0.78125" stroke-miterlimit="10"/>
<path d="M515.281 333.612C513.891 333.612 512.516 333.315 511.234 332.768L515.281 333.612Z" fill="#5377EB"/>
<path d="M515.281 333.612C513.891 333.612 512.516 333.315 511.234 332.768" stroke="black" stroke-width="0.78125" stroke-miterlimit="10"/>
<path d="M381.062 249.643C385.75 250.861 390.594 251.377 395.438 251.205" stroke="black" stroke-width="0.78125" stroke-miterlimit="10"/>
<path d="M381.109 252.768C385.625 254.83 390.719 255.564 395.641 254.877" stroke="black" stroke-width="0.78125" stroke-miterlimit="10"/>
<path d="M381.922 256.439C385.984 258.72 390.828 259.611 395.438 258.908" stroke="black" stroke-width="0.78125" stroke-miterlimit="10"/>
</g>
<path d="M133.046 174.514C133.436 174.123 134.069 174.123 134.46 174.514L140.824 180.878C141.214 181.268 141.214 181.901 140.824 182.292C140.433 182.682 139.8 182.682 139.409 182.292L133.753 176.635L128.096 182.292C127.705 182.682 127.072 182.682 126.682 182.292C126.291 181.901 126.291 181.268 126.682 180.878L133.046 174.514ZM422.081 308.588C422.502 308.231 423.133 308.284 423.49 308.705C423.847 309.127 423.794 309.758 423.372 310.115L422.727 309.351L422.081 308.588ZM133.753 175.221L134.753 175.221C134.753 271.657 212.93 349.834 309.366 349.834L309.366 350.834L309.366 351.834C211.825 351.834 132.753 272.762 132.753 175.221L133.753 175.221ZM309.366 350.834L309.366 349.834C352.328 349.834 391.664 334.32 422.081 308.588L422.727 309.351L423.372 310.115C392.608 336.141 352.819 351.834 309.366 351.834L309.366 350.834Z" fill="black"/>
<path d="M310.824 330.974C360.105 330.974 404.292 309.163 434.258 274.668" stroke="#090909" stroke-width="1.56798"/>
<rect x="165.592" y="95.4052" width="202.8" height="123.19" rx="6.4" fill="#F9EFE3" stroke="black" stroke-width="1.2"/>
<g clip-path="url(#clip1_40001856_10871)">
<rect x="320.32" y="148.562" width="26.645" height="20.4962" rx="3.27939" fill="#F9EFE3"/>
<path d="M329.326 169.059L328.507 169.059L328.507 164.55L320.313 164.55L320.313 163.73L328.507 163.73L328.507 159.63L320.313 159.63L320.313 158.811L328.507 158.811L328.507 154.711L320.313 154.711L320.313 153.892L328.507 153.892L328.507 148.562L329.326 148.562L329.326 169.059Z" fill="black"/>
<path d="M340.399 147.947C340.399 150.152 340.031 152.091 339.493 153.892L346.135 153.892L346.135 154.711L339.233 154.711C338.78 156.071 338.245 157.362 337.712 158.64L337.703 158.661C337.682 158.711 337.662 158.761 337.642 158.811L346.135 158.811L346.135 159.63L337.302 159.63C336.752 160.966 336.232 162.308 335.832 163.729L346.137 163.729L346.137 164.549L335.618 164.549C335.282 165.944 335.07 167.425 335.07 169.059L334.25 169.059C334.25 165.06 335.456 161.936 336.706 158.925L336.706 158.811L336.754 158.811C336.815 158.663 336.876 158.514 336.938 158.366L336.946 158.346C338.28 155.147 339.579 152.02 339.579 147.947L340.399 147.947Z" fill="black"/>
</g>
<rect x="320.82" y="149.062" width="25.645" height="19.4962" rx="2.77939" stroke="black"/>
<path d="M191.993 125.009C192.03 123.851 192.131 122.816 192.296 121.904C192.461 120.981 192.725 120.105 193.087 119.275C193.448 118.445 193.933 117.594 194.54 116.723H189.911L189.88 115.232H196.446L196.468 116.308C195.909 117.015 195.457 117.692 195.112 118.337C194.777 118.983 194.514 119.639 194.323 120.305C194.142 120.961 194.014 121.673 193.938 122.442C193.861 123.2 193.813 124.056 193.792 125.009H191.993ZM199.856 121.12H202.424L202.377 118.906C202.371 118.619 202.374 118.281 202.386 117.891C202.399 117.502 202.407 117.164 202.411 116.877H202.35C202.232 117.133 202.109 117.384 201.981 117.63C201.853 117.876 201.72 118.132 201.582 118.399L199.856 121.12ZM202.506 125.009L202.453 122.488H198.132L198.106 121.289L201.854 115.232H203.96L204.085 121.12H205.315L205.344 122.488H204.113L204.167 125.009H202.506ZM210.101 125.194C209.312 125.194 208.643 125.061 208.094 124.794C207.555 124.517 207.107 124.189 206.751 123.81L207.572 122.673C207.876 122.97 208.22 123.226 208.604 123.441C208.987 123.646 209.425 123.749 209.917 123.749C210.45 123.749 210.878 123.621 211.201 123.364C211.533 123.098 211.695 122.734 211.685 122.273C211.678 121.935 211.585 121.642 211.405 121.397C211.236 121.14 210.939 120.946 210.516 120.812C210.103 120.679 209.523 120.612 208.774 120.612L208.747 119.321C209.711 119.321 210.374 119.172 210.737 118.875C211.1 118.578 211.276 118.204 211.267 117.753C211.258 117.343 211.123 117.025 210.862 116.8C210.601 116.564 210.245 116.446 209.794 116.446C209.414 116.446 209.068 116.533 208.754 116.708C208.439 116.872 208.136 117.092 207.845 117.369L206.915 116.277C207.327 115.908 207.767 115.611 208.234 115.385C208.711 115.16 209.241 115.047 209.826 115.047C210.769 115.047 211.537 115.273 212.131 115.724C212.725 116.164 213.03 116.8 213.048 117.63C213.059 118.173 212.915 118.634 212.616 119.014C212.326 119.383 211.917 119.67 211.388 119.875L211.39 119.936C211.967 120.09 212.455 120.372 212.853 120.782C213.251 121.192 213.457 121.719 213.471 122.365C213.483 122.959 213.335 123.467 213.026 123.887C212.727 124.307 212.319 124.63 211.801 124.856C211.293 125.081 210.727 125.194 210.101 125.194ZM218.6 125.194C217.811 125.194 217.142 125.061 216.593 124.794C216.054 124.517 215.606 124.189 215.249 123.81L216.071 122.673C216.375 122.97 216.718 123.226 217.102 123.441C217.486 123.646 217.924 123.749 218.416 123.749C218.949 123.749 219.377 123.621 219.699 123.364C220.032 123.098 220.193 122.734 220.184 122.273C220.177 121.935 220.083 121.642 219.904 121.397C219.734 121.14 219.438 120.946 219.015 120.812C218.602 120.679 218.022 120.612 217.273 120.612L217.246 119.321C218.21 119.321 218.873 119.172 219.236 118.875C219.598 118.578 219.775 118.204 219.765 117.753C219.757 117.343 219.622 117.025 219.361 116.8C219.1 116.564 218.743 116.446 218.292 116.446C217.913 116.446 217.566 116.533 217.252 116.708C216.938 116.872 216.635 117.092 216.344 117.369L215.413 116.277C215.826 115.908 216.266 115.611 216.732 115.385C217.209 115.16 217.74 115.047 218.324 115.047C219.268 115.047 220.036 115.273 220.63 115.724C221.223 116.164 221.529 116.8 221.547 117.63C221.558 118.173 221.414 118.634 221.114 119.014C220.825 119.383 220.416 119.67 219.887 119.875L219.888 119.936C220.466 120.09 220.953 120.372 221.352 120.782C221.75 121.192 221.956 121.719 221.969 122.365C221.982 122.959 221.834 123.467 221.525 123.887C221.226 124.307 220.818 124.63 220.3 124.856C219.792 125.081 219.225 125.194 218.6 125.194ZM231.038 125.194C230.023 125.194 229.204 124.753 228.581 123.872C227.968 122.99 227.644 121.724 227.609 120.074C227.574 118.424 227.845 117.174 228.422 116.323C229.008 115.473 229.809 115.047 230.824 115.047C231.839 115.047 232.653 115.473 233.265 116.323C233.888 117.174 234.217 118.424 234.252 120.074C234.287 121.724 234.011 122.99 233.425 123.872C232.849 124.753 232.053 125.194 231.038 125.194ZM231.009 123.81C231.327 123.81 231.606 123.692 231.847 123.457C232.088 123.211 232.27 122.816 232.391 122.273C232.523 121.73 232.58 120.997 232.56 120.074C232.541 119.152 232.454 118.424 232.299 117.891C232.154 117.358 231.957 116.984 231.706 116.769C231.455 116.544 231.171 116.431 230.853 116.431C230.546 116.431 230.271 116.544 230.03 116.769C229.789 116.984 229.602 117.358 229.47 117.891C229.337 118.424 229.281 119.152 229.3 120.074C229.32 120.997 229.407 121.73 229.562 122.273C229.717 122.816 229.92 123.211 230.171 123.457C230.422 123.692 230.702 123.81 231.009 123.81ZM236.181 125.009L236.159 123.979C237.053 123.098 237.821 122.314 238.462 121.627C239.114 120.93 239.613 120.3 239.96 119.736C240.307 119.162 240.475 118.629 240.465 118.137C240.454 117.625 240.307 117.215 240.023 116.907C239.74 116.6 239.337 116.446 238.814 116.446C238.435 116.446 238.089 116.554 237.775 116.769C237.472 116.984 237.191 117.241 236.931 117.538L235.926 116.554C236.367 116.072 236.825 115.703 237.302 115.447C237.778 115.181 238.349 115.047 239.015 115.047C239.958 115.047 240.713 115.319 241.278 115.862C241.853 116.405 242.15 117.133 242.169 118.045C242.182 118.619 242.03 119.208 241.715 119.813C241.409 120.407 240.992 121.017 240.462 121.642C239.942 122.268 239.366 122.924 238.735 123.61C238.991 123.59 239.267 123.569 239.564 123.549C239.86 123.518 240.127 123.503 240.362 123.503H242.761L242.793 125.009H236.181ZM246.152 118.245C246.164 118.819 246.306 119.254 246.579 119.552C246.862 119.849 247.25 119.998 247.742 119.998C248.029 119.998 248.324 119.91 248.628 119.736C248.942 119.552 249.223 119.26 249.471 118.86C249.36 117.999 249.137 117.374 248.801 116.984C248.464 116.595 248.055 116.4 247.573 116.4C247.174 116.4 246.834 116.559 246.553 116.877C246.273 117.194 246.139 117.651 246.152 118.245ZM247.436 125.194C246.852 125.194 246.342 125.086 245.907 124.871C245.472 124.656 245.102 124.394 244.799 124.087L245.729 123.011C245.918 123.226 246.153 123.405 246.433 123.549C246.722 123.682 247.016 123.749 247.313 123.749C247.723 123.749 248.095 123.636 248.429 123.41C248.762 123.185 249.031 122.811 249.235 122.288C249.439 121.755 249.542 121.038 249.544 120.136C249.264 120.484 248.932 120.761 248.546 120.966C248.161 121.171 247.789 121.274 247.43 121.274C246.59 121.274 245.898 121.028 245.354 120.536C244.821 120.033 244.543 119.27 244.522 118.245C244.508 117.589 244.634 117.025 244.901 116.554C245.178 116.072 245.544 115.703 246 115.447C246.466 115.181 246.976 115.047 247.529 115.047C248.165 115.047 248.753 115.216 249.293 115.555C249.844 115.893 250.285 116.416 250.618 117.123C250.961 117.82 251.144 118.716 251.167 119.813C251.193 121.074 251.036 122.104 250.694 122.903C250.352 123.692 249.892 124.271 249.316 124.64C248.739 125.009 248.113 125.194 247.436 125.194ZM255.177 125.009C255.215 123.851 255.316 122.816 255.481 121.904C255.646 120.981 255.909 120.105 256.271 119.275C256.633 118.445 257.117 117.594 257.724 116.723H253.096L253.064 115.232H259.63L259.653 116.308C259.094 117.015 258.642 117.692 258.297 118.337C257.962 118.983 257.699 119.639 257.508 120.305C257.327 120.961 257.198 121.673 257.122 122.442C257.046 123.2 256.997 124.056 256.977 125.009H255.177ZM268.481 125.194C267.691 125.194 267.022 125.061 266.473 124.794C265.934 124.517 265.487 124.189 265.13 123.81L265.952 122.673C266.255 122.97 266.599 123.226 266.983 123.441C267.367 123.646 267.804 123.749 268.296 123.749C268.83 123.749 269.257 123.621 269.58 123.364C269.913 123.098 270.074 122.734 270.064 122.273C270.057 121.935 269.964 121.642 269.785 121.397C269.615 121.14 269.319 120.946 268.896 120.812C268.483 120.679 267.902 120.612 267.154 120.612L267.127 119.321C268.09 119.321 268.753 119.172 269.116 118.875C269.479 118.578 269.656 118.204 269.646 117.753C269.637 117.343 269.503 117.025 269.242 116.8C268.98 116.564 268.624 116.446 268.173 116.446C267.794 116.446 267.447 116.533 267.133 116.708C266.819 116.872 266.516 117.092 266.224 117.369L265.294 116.277C265.707 115.908 266.146 115.611 266.613 115.385C267.09 115.16 267.621 115.047 268.205 115.047C269.148 115.047 269.917 115.273 270.511 115.724C271.104 116.164 271.41 116.8 271.427 117.63C271.439 118.173 271.295 118.634 270.995 119.014C270.706 119.383 270.297 119.67 269.768 119.875L269.769 119.936C270.346 120.09 270.834 120.372 271.232 120.782C271.631 121.192 271.836 121.719 271.85 122.365C271.863 122.959 271.714 123.467 271.406 123.887C271.107 124.307 270.698 124.63 270.18 124.856C269.673 125.081 269.106 125.194 268.481 125.194ZM276.995 125.194C276.206 125.194 275.536 125.061 274.987 124.794C274.449 124.517 273.996 124.2 273.63 123.841L274.42 122.703C274.724 122.98 275.062 123.226 275.436 123.441C275.809 123.646 276.242 123.749 276.734 123.749C277.277 123.749 277.725 123.585 278.076 123.257C278.428 122.929 278.598 122.468 278.585 121.873C278.573 121.289 278.4 120.838 278.065 120.52C277.73 120.203 277.291 120.044 276.748 120.044C276.43 120.044 276.164 120.09 275.951 120.182C275.738 120.264 275.484 120.402 275.191 120.597L274.334 120.059L274.524 115.232H279.752L279.784 116.723H276.093L275.943 119.09C276.146 118.988 276.345 118.911 276.538 118.86C276.742 118.798 276.972 118.768 277.228 118.768C277.792 118.768 278.307 118.875 278.773 119.09C279.239 119.306 279.615 119.639 279.901 120.09C280.198 120.541 280.353 121.12 280.368 121.827C280.383 122.534 280.232 123.139 279.914 123.641C279.607 124.143 279.195 124.528 278.678 124.794C278.161 125.061 277.6 125.194 276.995 125.194ZM285.804 120.244C285.528 120.244 285.237 120.331 284.933 120.505C284.629 120.669 284.343 120.956 284.075 121.366C284.186 122.237 284.409 122.867 284.745 123.257C285.082 123.646 285.486 123.841 285.957 123.841C286.367 123.841 286.707 123.682 286.977 123.364C287.257 123.036 287.391 122.575 287.379 121.981C287.367 121.407 287.219 120.976 286.936 120.689C286.663 120.392 286.286 120.244 285.804 120.244ZM286.016 125.194C285.381 125.194 284.788 125.025 284.237 124.686C283.687 124.348 283.24 123.826 282.897 123.118C282.565 122.411 282.387 121.509 282.363 120.413C282.337 119.142 282.494 118.117 282.837 117.338C283.189 116.549 283.654 115.97 284.23 115.601C284.807 115.232 285.428 115.047 286.094 115.047C286.689 115.047 287.204 115.155 287.639 115.37C288.074 115.585 288.438 115.847 288.732 116.154L287.801 117.23C287.622 117.015 287.388 116.841 287.098 116.708C286.818 116.564 286.53 116.492 286.233 116.492C285.823 116.492 285.451 116.605 285.117 116.831C284.784 117.056 284.515 117.435 284.311 117.968C284.117 118.491 284.014 119.203 284.002 120.105C284.282 119.746 284.614 119.465 284.999 119.26C285.385 119.055 285.751 118.952 286.1 118.952C286.951 118.952 287.643 119.203 288.176 119.705C288.72 120.197 289.002 120.956 289.024 121.981C289.038 122.626 288.906 123.19 288.629 123.672C288.363 124.153 288.001 124.528 287.546 124.794C287.09 125.061 286.58 125.194 286.016 125.194ZM290.867 125.009L290.845 123.979C291.739 123.098 292.507 122.314 293.148 121.627C293.8 120.93 294.299 120.3 294.646 119.736C294.993 119.162 295.161 118.629 295.15 118.137C295.14 117.625 294.993 117.215 294.709 116.907C294.426 116.6 294.023 116.446 293.5 116.446C293.121 116.446 292.775 116.554 292.461 116.769C292.158 116.984 291.877 117.241 291.616 117.538L290.612 116.554C291.052 116.072 291.511 115.703 291.988 115.447C292.464 115.181 293.035 115.047 293.701 115.047C294.644 115.047 295.399 115.319 295.964 115.862C296.539 116.405 296.836 117.133 296.855 118.045C296.867 118.619 296.716 119.208 296.401 119.813C296.095 120.407 295.678 121.017 295.148 121.642C294.628 122.268 294.052 122.924 293.421 123.61C293.677 123.59 293.953 123.569 294.25 123.549C294.546 123.518 294.813 123.503 295.048 123.503H297.447L297.479 125.009H290.867ZM306.431 125.194C305.795 125.194 305.224 125.081 304.717 124.856C304.209 124.62 303.808 124.302 303.512 123.902C303.217 123.503 303.064 123.036 303.052 122.503C303.04 121.899 303.208 121.391 303.558 120.981C303.909 120.571 304.312 120.244 304.768 119.998L304.767 119.936C304.382 119.67 304.052 119.352 303.778 118.983C303.513 118.604 303.376 118.158 303.365 117.645C303.354 117.112 303.472 116.656 303.721 116.277C303.969 115.888 304.311 115.585 304.747 115.37C305.194 115.155 305.699 115.047 306.263 115.047C307.144 115.047 307.846 115.293 308.369 115.785C308.902 116.267 309.177 116.902 309.194 117.692C309.204 118.173 309.075 118.609 308.806 118.998C308.538 119.388 308.247 119.7 307.934 119.936L307.935 119.998C308.392 120.254 308.793 120.577 309.14 120.966C309.486 121.356 309.667 121.878 309.68 122.534C309.691 123.036 309.562 123.487 309.294 123.887C309.026 124.287 308.648 124.604 308.161 124.84C307.674 125.076 307.097 125.194 306.431 125.194ZM306.956 119.49C307.217 119.224 307.411 118.952 307.539 118.675C307.676 118.399 307.742 118.107 307.735 117.799C307.726 117.369 307.591 117.015 307.329 116.738C307.066 116.451 306.709 116.308 306.258 116.308C305.879 116.308 305.564 116.426 305.313 116.661C305.061 116.897 304.94 117.225 304.949 117.645C304.956 117.973 305.049 118.25 305.228 118.476C305.407 118.691 305.646 118.88 305.947 119.044C306.258 119.198 306.594 119.347 306.956 119.49ZM306.435 123.933C306.906 123.933 307.288 123.805 307.58 123.549C307.882 123.282 308.028 122.924 308.018 122.473C308.011 122.114 307.897 121.822 307.677 121.596C307.467 121.371 307.181 121.176 306.819 121.012C306.467 120.838 306.068 120.664 305.624 120.489C305.321 120.715 305.071 120.981 304.872 121.289C304.684 121.596 304.594 121.94 304.602 122.319C304.612 122.801 304.794 123.19 305.149 123.487C305.504 123.785 305.932 123.933 306.435 123.933ZM314.929 125.194C314.294 125.194 313.722 125.081 313.215 124.856C312.708 124.62 312.307 124.302 312.011 123.902C311.716 123.503 311.562 123.036 311.551 122.503C311.538 121.899 311.707 121.391 312.057 120.981C312.407 120.571 312.81 120.244 313.267 119.998L313.265 119.936C312.88 119.67 312.551 119.352 312.276 118.983C312.012 118.604 311.875 118.158 311.864 117.645C311.853 117.112 311.971 116.656 312.219 116.277C312.467 115.888 312.81 115.585 313.246 115.37C313.692 115.155 314.197 115.047 314.761 115.047C315.643 115.047 316.345 115.293 316.868 115.785C317.401 116.267 317.676 116.902 317.693 117.692C317.703 118.173 317.574 118.609 317.305 118.998C317.036 119.388 316.746 119.7 316.433 119.936L316.434 119.998C316.891 120.254 317.292 120.577 317.639 120.966C317.985 121.356 318.165 121.878 318.179 122.534C318.19 123.036 318.061 123.487 317.793 123.887C317.524 124.287 317.147 124.604 316.659 124.84C316.172 125.076 315.596 125.194 314.929 125.194ZM315.455 119.49C315.716 119.224 315.91 118.952 316.037 118.675C316.175 118.399 316.241 118.107 316.234 117.799C316.225 117.369 316.089 117.015 315.827 116.738C315.565 116.451 315.208 116.308 314.757 116.308C314.378 116.308 314.063 116.426 313.811 116.661C313.56 116.897 313.439 117.225 313.448 117.645C313.455 117.973 313.548 118.25 313.727 118.476C313.905 118.691 314.145 118.88 314.446 119.044C314.757 119.198 315.093 119.347 315.455 119.49ZM314.933 123.933C315.405 123.933 315.787 123.805 316.079 123.549C316.381 123.282 316.527 122.924 316.517 122.473C316.51 122.114 316.396 121.822 316.176 121.596C315.966 121.371 315.68 121.176 315.318 121.012C314.966 120.838 314.567 120.664 314.123 120.489C313.82 120.715 313.569 120.981 313.371 121.289C313.182 121.596 313.092 121.94 313.1 122.319C313.11 122.801 313.293 123.19 313.648 123.487C314.003 123.785 314.431 123.933 314.933 123.933ZM323.493 120.244C323.216 120.244 322.926 120.331 322.622 120.505C322.318 120.669 322.032 120.956 321.763 121.366C321.874 122.237 322.098 122.867 322.434 123.257C322.77 123.646 323.174 123.841 323.646 123.841C324.056 123.841 324.396 123.682 324.666 123.364C324.946 123.036 325.08 122.575 325.067 121.981C325.055 121.407 324.908 120.976 324.625 120.689C324.352 120.392 323.975 120.244 323.493 120.244ZM323.705 125.194C323.069 125.194 322.476 125.025 321.926 124.686C321.375 124.348 320.929 123.826 320.586 123.118C320.253 122.411 320.075 121.509 320.052 120.413C320.025 119.142 320.183 118.117 320.525 117.338C320.878 116.549 321.342 115.97 321.919 115.601C322.495 115.232 323.117 115.047 323.783 115.047C324.377 115.047 324.892 115.155 325.327 115.37C325.762 115.585 326.127 115.847 326.42 116.154L325.49 117.23C325.311 117.015 325.077 116.841 324.787 116.708C324.507 116.564 324.218 116.492 323.921 116.492C323.511 116.492 323.139 116.605 322.806 116.831C322.472 117.056 322.203 117.435 321.999 117.968C321.805 118.491 321.702 119.203 321.691 120.105C321.97 119.746 322.303 119.465 322.688 119.26C323.073 119.055 323.44 118.952 323.788 118.952C324.639 118.952 325.331 119.203 325.865 119.705C326.408 120.197 326.691 120.956 326.712 121.981C326.726 122.626 326.594 123.19 326.318 123.672C326.051 124.153 325.69 124.528 325.234 124.794C324.778 125.061 324.269 125.194 323.705 125.194ZM330.027 118.245C330.039 118.819 330.182 119.254 330.455 119.552C330.738 119.849 331.125 119.998 331.617 119.998C331.904 119.998 332.2 119.91 332.504 119.736C332.818 119.552 333.098 119.26 333.346 118.86C333.236 117.999 333.012 117.374 332.676 116.984C332.34 116.595 331.931 116.4 331.449 116.4C331.049 116.4 330.709 116.559 330.429 116.877C330.149 117.194 330.015 117.651 330.027 118.245ZM331.312 125.194C330.727 125.194 330.218 125.086 329.783 124.871C329.348 124.656 328.978 124.394 328.674 124.087L329.605 123.011C329.794 123.226 330.028 123.405 330.308 123.549C330.598 123.682 330.892 123.749 331.189 123.749C331.599 123.749 331.971 123.636 332.304 123.41C332.638 123.185 332.907 122.811 333.111 122.288C333.315 121.755 333.418 121.038 333.419 120.136C333.14 120.484 332.807 120.761 332.422 120.966C332.037 121.171 331.665 121.274 331.306 121.274C330.465 121.274 329.773 121.028 329.23 120.536C328.696 120.033 328.419 119.27 328.397 118.245C328.383 117.589 328.51 117.025 328.777 116.554C329.054 116.072 329.42 115.703 329.876 115.447C330.342 115.181 330.852 115.047 331.405 115.047C332.041 115.047 332.629 115.216 333.169 115.555C333.719 115.893 334.161 116.416 334.494 117.123C334.836 117.82 335.019 118.716 335.042 119.813C335.069 121.074 334.911 122.104 334.569 122.903C334.227 123.692 333.768 124.271 333.191 124.64C332.615 125.009 331.988 125.194 331.312 125.194Z" fill="black"/>
<path d="M192.349 182.058C191.509 182.058 190.87 181.412 190.847 180.316C190.824 179.235 191.446 178.574 192.302 178.574C192.712 178.574 193.033 178.768 193.238 178.989L193.008 179.255C192.825 179.071 192.602 178.953 192.315 178.953C191.684 178.953 191.275 179.47 191.292 180.306C191.31 181.151 191.721 181.679 192.357 181.679C192.68 181.679 192.918 181.551 193.128 181.315L193.369 181.571C193.104 181.884 192.78 182.058 192.349 182.058ZM194.745 182.058C194.329 182.058 194.011 181.802 194.002 181.351C193.99 180.798 194.446 180.531 195.509 180.413C195.498 180.101 195.389 179.798 194.984 179.798C194.697 179.798 194.438 179.926 194.246 180.054L194.076 179.768C194.303 179.614 194.648 179.445 195.048 179.445C195.653 179.445 195.923 179.85 195.936 180.464L195.968 181.997H195.62L195.572 181.699H195.557C195.326 181.899 195.057 182.058 194.745 182.058ZM194.855 181.71C195.096 181.71 195.294 181.602 195.53 181.392L195.516 180.716C194.677 180.813 194.41 181.003 194.416 181.325C194.422 181.602 194.614 181.71 194.855 181.71ZM196.957 181.997L196.905 179.506H197.253L197.298 179.957H197.314C197.481 179.645 197.734 179.445 198.01 179.445C198.123 179.445 198.2 179.46 198.278 179.496L198.193 179.86C198.121 179.839 198.065 179.829 197.967 179.829C197.757 179.829 197.509 179.978 197.349 180.398L197.383 181.997H196.957ZM199.746 182.058C199.121 182.058 198.706 181.587 198.688 180.757C198.671 179.947 199.173 179.445 199.742 179.445C200.029 179.445 200.221 179.552 200.445 179.732L200.416 179.306L200.396 178.348H200.821L200.898 181.997H200.55L200.508 181.705H200.492C200.301 181.894 200.038 182.058 199.746 182.058ZM199.831 181.699C200.062 181.699 200.259 181.587 200.459 181.361L200.432 180.06C200.218 179.87 200.027 179.803 199.822 179.803C199.427 179.803 199.117 180.183 199.129 180.751C199.142 181.346 199.395 181.699 199.831 181.699ZM203.214 181.997L203.143 178.635H203.574L203.604 180.039H205.162L205.132 178.635H205.563L205.634 181.997H205.203L205.17 180.418H203.612L203.645 181.997H203.214ZM207.692 182.058C207.082 182.058 206.529 181.582 206.511 180.757C206.494 179.921 207.027 179.445 207.637 179.445C208.247 179.445 208.805 179.921 208.823 180.757C208.84 181.582 208.302 182.058 207.692 182.058ZM207.685 181.705C208.115 181.705 208.394 181.325 208.382 180.757C208.37 180.183 208.075 179.798 207.644 179.798C207.219 179.798 206.94 180.183 206.952 180.757C206.964 181.325 207.259 181.705 207.685 181.705ZM210.152 182.058C209.835 182.058 209.702 181.853 209.694 181.494L209.628 178.348H210.054L210.121 181.525C210.123 181.658 210.181 181.705 210.247 181.705C210.273 181.705 210.294 181.705 210.334 181.694L210.397 182.012C210.337 182.043 210.26 182.058 210.152 182.058ZM212.069 182.058C211.443 182.058 211.029 181.587 211.011 180.757C210.994 179.947 211.496 179.445 212.065 179.445C212.352 179.445 212.544 179.552 212.768 179.732L212.738 179.306L212.718 178.348H213.144L213.221 181.997H212.872L212.83 181.705H212.815C212.624 181.894 212.361 182.058 212.069 182.058ZM212.153 181.699C212.384 181.699 212.582 181.587 212.782 181.361L212.754 180.06C212.54 179.87 212.349 179.803 212.144 179.803C211.749 179.803 211.44 180.183 211.452 180.751C211.464 181.346 211.718 181.699 212.153 181.699ZM215.271 182.058C214.604 182.058 214.071 181.576 214.054 180.751C214.037 179.942 214.575 179.445 215.144 179.445C215.779 179.445 216.153 179.896 216.168 180.613C216.17 180.705 216.166 180.782 216.153 180.864H214.477C214.523 181.377 214.843 181.715 215.315 181.715C215.556 181.715 215.764 181.648 215.936 181.53L216.09 181.802C215.878 181.956 215.614 182.058 215.271 182.058ZM214.47 180.536H215.787C215.777 180.044 215.54 179.783 215.161 179.783C214.813 179.783 214.511 180.06 214.47 180.536ZM217.013 181.997L216.96 179.506H217.309L217.354 179.957H217.369C217.537 179.645 217.789 179.445 218.066 179.445C218.179 179.445 218.256 179.46 218.333 179.496L218.249 179.86C218.177 179.839 218.12 179.829 218.023 179.829C217.813 179.829 217.564 179.978 217.404 180.398L217.438 181.997H217.013ZM220.231 181.997L220.178 179.506H220.527L220.57 179.865H220.585C220.816 179.629 221.069 179.445 221.412 179.445C221.94 179.445 222.183 179.783 222.196 180.418L222.23 181.997H221.804L221.772 180.475C221.762 180.008 221.615 179.814 221.287 179.814C221.035 179.814 220.859 179.942 220.618 180.193L220.656 181.997H220.231ZM223.814 182.058C223.399 182.058 223.081 181.802 223.071 181.351C223.06 180.798 223.515 180.531 224.579 180.413C224.567 180.101 224.458 179.798 224.053 179.798C223.766 179.798 223.508 179.926 223.316 180.054L223.146 179.768C223.373 179.614 223.718 179.445 224.118 179.445C224.723 179.445 224.993 179.85 225.006 180.464L225.038 181.997H224.689L224.642 181.699H224.627C224.395 181.899 224.127 182.058 223.814 182.058ZM223.925 181.71C224.166 181.71 224.363 181.602 224.6 181.392L224.585 180.716C223.747 180.813 223.479 181.003 223.486 181.325C223.492 181.602 223.684 181.71 223.925 181.71ZM226.027 181.997L225.974 179.506H226.323L226.366 179.865H226.381C226.597 179.629 226.849 179.445 227.147 179.445C227.531 179.445 227.74 179.624 227.848 179.916C228.099 179.639 228.356 179.445 228.659 179.445C229.171 179.445 229.424 179.783 229.438 180.418L229.471 181.997H229.046L229.014 180.475C229.004 180.008 228.851 179.814 228.538 179.814C228.343 179.814 228.146 179.937 227.921 180.193L227.959 181.997H227.534L227.501 180.475C227.492 180.008 227.344 179.814 227.026 179.814C226.842 179.814 226.639 179.937 226.414 180.193L226.452 181.997H226.027ZM231.487 182.058C230.821 182.058 230.288 181.576 230.271 180.751C230.253 179.942 230.791 179.445 231.36 179.445C231.996 179.445 232.369 179.896 232.385 180.613C232.386 180.705 232.383 180.782 232.369 180.864H230.693C230.74 181.377 231.06 181.715 231.531 181.715C231.772 181.715 231.981 181.648 232.153 181.53L232.307 181.802C232.095 181.956 231.831 182.058 231.487 182.058ZM230.686 180.536H232.004C231.993 180.044 231.757 179.783 231.378 179.783C231.029 179.783 230.727 180.06 230.686 180.536Z" fill="black"/>
<path d="M191.622 196.119L191.504 190.533H192.495L192.543 192.78H194.807L194.759 190.533H195.75L195.868 196.119H194.877L194.825 193.642H192.561L192.613 196.119H191.622ZM199.339 196.222C198.952 196.222 198.6 196.136 198.283 195.965C197.966 195.789 197.713 195.538 197.524 195.214C197.335 194.883 197.235 194.488 197.226 194.027C197.216 193.571 197.299 193.178 197.474 192.848C197.655 192.518 197.892 192.264 198.184 192.088C198.477 191.911 198.785 191.823 199.11 191.823C199.491 191.823 199.812 191.908 200.072 192.079C200.332 192.244 200.53 192.478 200.668 192.78C200.805 193.076 200.878 193.42 200.886 193.813C200.89 194.018 200.879 194.177 200.853 194.291H198.188C198.241 194.661 198.381 194.949 198.608 195.154C198.834 195.359 199.115 195.461 199.451 195.461C199.634 195.461 199.801 195.436 199.954 195.385C200.112 195.328 200.267 195.251 200.419 195.154L200.765 195.769C200.568 195.9 200.349 196.008 200.106 196.093C199.862 196.179 199.607 196.222 199.339 196.222ZM198.165 193.625H200.028C200.021 193.301 199.944 193.047 199.798 192.865C199.652 192.677 199.436 192.583 199.152 192.583C198.907 192.583 198.689 192.674 198.499 192.856C198.315 193.033 198.204 193.289 198.165 193.625ZM203.174 196.222C202.826 196.222 202.576 196.116 202.424 195.906C202.277 195.695 202.2 195.407 202.192 195.043L202.087 190.089H203.07L203.175 195.094C203.178 195.214 203.203 195.299 203.249 195.35C203.296 195.396 203.345 195.419 203.396 195.419C203.419 195.419 203.439 195.419 203.456 195.419C203.478 195.413 203.51 195.407 203.549 195.402L203.693 196.136C203.636 196.159 203.563 196.179 203.472 196.196C203.387 196.213 203.288 196.222 203.174 196.222ZM206.672 196.222C206.284 196.222 205.932 196.136 205.616 195.965C205.299 195.789 205.046 195.538 204.857 195.214C204.667 194.883 204.568 194.488 204.558 194.027C204.548 193.571 204.631 193.178 204.807 192.848C204.988 192.518 205.224 192.264 205.517 192.088C205.809 191.911 206.118 191.823 206.442 191.823C206.824 191.823 207.145 191.908 207.404 192.079C207.664 192.244 207.863 192.478 208 192.78C208.137 193.076 208.21 193.42 208.218 193.813C208.223 194.018 208.212 194.177 208.186 194.291H205.52C205.574 194.661 205.714 194.949 205.94 195.154C206.167 195.359 206.448 195.461 206.784 195.461C206.966 195.461 207.134 195.436 207.286 195.385C207.445 195.328 207.6 195.251 207.751 195.154L208.097 195.769C207.901 195.9 207.681 196.008 207.438 196.093C207.195 196.179 206.939 196.222 206.672 196.222ZM205.498 193.625H207.36C207.353 193.301 207.277 193.047 207.131 192.865C206.984 192.677 206.769 192.583 206.484 192.583C206.239 192.583 206.022 192.674 205.832 192.856C205.648 193.033 205.536 193.289 205.498 193.625ZM209.547 196.119L209.459 191.926H210.27L210.35 192.489H210.385C210.569 192.307 210.77 192.15 210.99 192.019C211.209 191.888 211.461 191.823 211.746 191.823C212.196 191.823 212.526 191.968 212.737 192.259C212.949 192.549 213.06 192.959 213.071 193.488L213.127 196.119H212.144L212.091 193.617C212.084 193.269 212.028 193.024 211.922 192.882C211.816 192.74 211.647 192.669 211.413 192.669C211.231 192.669 211.07 192.714 210.929 192.805C210.795 192.891 210.641 193.019 210.468 193.19L210.53 196.119H209.547ZM215.688 196.222C215.323 196.222 215.022 196.108 214.784 195.88C214.551 195.652 214.431 195.356 214.423 194.992C214.414 194.542 214.603 194.195 214.991 193.95C215.378 193.699 216.001 193.528 216.859 193.437C216.849 193.215 216.785 193.024 216.668 192.865C216.556 192.7 216.358 192.617 216.073 192.617C215.868 192.617 215.667 192.657 215.469 192.737C215.277 192.817 215.088 192.913 214.903 193.027L214.53 192.37C214.761 192.222 215.02 192.093 215.308 191.985C215.602 191.877 215.914 191.823 216.244 191.823C216.768 191.823 217.162 191.98 217.424 192.293C217.693 192.6 217.833 193.047 217.846 193.634L217.898 196.119H217.087L217.009 195.658H216.974C216.79 195.817 216.59 195.951 216.376 196.059C216.168 196.167 215.938 196.222 215.688 196.222ZM215.988 195.453C216.159 195.453 216.311 195.413 216.446 195.333C216.587 195.248 216.736 195.134 216.892 194.992L216.872 194.052C216.304 194.126 215.911 194.237 215.692 194.385C215.473 194.528 215.365 194.704 215.37 194.915C215.374 195.103 215.434 195.239 215.549 195.325C215.665 195.41 215.811 195.453 215.988 195.453ZM223.187 196.222C222.811 196.222 222.445 196.15 222.089 196.008C221.738 195.866 221.427 195.664 221.153 195.402L221.72 194.727C221.923 194.915 222.154 195.069 222.413 195.188C222.672 195.302 222.929 195.359 223.186 195.359C223.505 195.359 223.745 195.293 223.908 195.162C224.07 195.032 224.149 194.858 224.144 194.641C224.139 194.408 224.053 194.24 223.886 194.138C223.724 194.035 223.517 193.93 223.264 193.822L222.488 193.488C222.304 193.409 222.123 193.306 221.944 193.181C221.77 193.056 221.624 192.896 221.506 192.703C221.394 192.509 221.335 192.276 221.329 192.002C221.323 191.706 221.397 191.442 221.552 191.208C221.712 190.969 221.93 190.781 222.206 190.644C222.488 190.502 222.811 190.431 223.176 190.431C223.5 190.431 223.815 190.496 224.119 190.627C224.424 190.753 224.687 190.923 224.908 191.14L224.417 191.772C224.237 191.624 224.047 191.507 223.846 191.422C223.65 191.336 223.433 191.293 223.194 191.293C222.932 191.293 222.72 191.353 222.557 191.473C222.4 191.587 222.323 191.746 222.328 191.951C222.331 192.093 222.373 192.213 222.455 192.31C222.542 192.401 222.655 192.481 222.793 192.549C222.931 192.612 223.078 192.674 223.233 192.737L224 193.053C224.333 193.195 224.608 193.383 224.823 193.617C225.039 193.844 225.151 194.16 225.159 194.565C225.166 194.866 225.092 195.143 224.938 195.393C224.783 195.644 224.557 195.846 224.258 195.999C223.965 196.148 223.608 196.222 223.187 196.222ZM226.464 196.119L226.376 191.926H227.187L227.268 192.498H227.302C227.475 192.31 227.662 192.15 227.864 192.019C228.072 191.888 228.307 191.823 228.569 191.823C228.877 191.823 229.123 191.891 229.308 192.028C229.499 192.159 229.645 192.341 229.747 192.575C229.942 192.358 230.146 192.179 230.359 192.037C230.578 191.894 230.819 191.823 231.081 191.823C231.525 191.823 231.856 191.968 232.072 192.259C232.289 192.549 232.403 192.959 232.414 193.488L232.47 196.119H231.479L231.426 193.617C231.419 193.269 231.36 193.024 231.248 192.882C231.143 192.74 230.982 192.669 230.765 192.669C230.503 192.669 230.214 192.842 229.897 193.19L229.958 196.119H228.976L228.923 193.617C228.916 193.269 228.857 193.024 228.745 192.882C228.64 192.74 228.476 192.669 228.254 192.669C227.992 192.669 227.702 192.842 227.385 193.19L227.447 196.119H226.464ZM234.006 196.119L233.917 191.926H234.9L234.988 196.119H234.006ZM234.397 191.191C234.221 191.191 234.077 191.14 233.967 191.037C233.856 190.935 233.799 190.798 233.796 190.627C233.792 190.462 233.844 190.328 233.95 190.226C234.056 190.123 234.197 190.072 234.374 190.072C234.55 190.072 234.694 190.123 234.804 190.226C234.914 190.328 234.971 190.462 234.975 190.627C234.978 190.798 234.927 190.935 234.821 191.037C234.715 191.14 234.574 191.191 234.397 191.191ZM238.063 196.222C237.579 196.222 237.232 196.082 237.021 195.803C236.815 195.518 236.708 195.151 236.698 194.701L236.656 192.703H236.058L236.043 191.968L236.691 191.926L236.787 190.781H237.607L237.631 191.926H238.699L238.715 192.703H237.647L237.689 194.701C237.7 195.191 237.901 195.436 238.294 195.436C238.368 195.436 238.445 195.427 238.524 195.41C238.604 195.387 238.672 195.365 238.728 195.342L238.914 196.068C238.801 196.108 238.671 196.142 238.523 196.17C238.382 196.204 238.228 196.222 238.063 196.222ZM240.012 196.119L239.884 190.089H240.867L240.9 191.644L240.883 192.455C241.056 192.29 241.249 192.145 241.463 192.019C241.676 191.888 241.926 191.823 242.21 191.823C242.66 191.823 242.991 191.968 243.202 192.259C243.413 192.549 243.524 192.959 243.535 193.488L243.591 196.119H242.609L242.556 193.617C242.548 193.269 242.492 193.024 242.387 192.882C242.281 192.74 242.111 192.669 241.878 192.669C241.696 192.669 241.534 192.714 241.394 192.805C241.259 192.891 241.105 193.019 240.932 193.19L240.994 196.119H240.012Z" fill="black"/>
<path d="M274.975 181.997L274.904 178.635H276.842L276.85 178.999H275.343L275.365 180.049H276.636L276.644 180.413H275.373L275.398 181.633H276.956L276.964 181.997H274.975ZM277.334 181.997L278.121 180.695L277.343 179.506H277.804L278.149 180.049C278.228 180.188 278.313 180.326 278.398 180.464H278.419C278.493 180.326 278.562 180.188 278.635 180.049L278.926 179.506H279.372L278.645 180.741L279.481 181.997H279.02L278.644 181.418C278.554 181.269 278.458 181.115 278.363 180.972H278.342C278.263 181.115 278.185 181.269 278.101 181.418L277.78 181.997H277.334ZM280.202 183.047L280.127 179.506H280.476L280.518 179.793H280.533C280.755 179.604 281.033 179.445 281.32 179.445C281.961 179.445 282.32 179.942 282.336 180.716C282.354 181.561 281.852 182.058 281.283 182.058C281.058 182.058 280.819 181.951 280.59 181.771L280.61 182.207L280.627 183.047H280.202ZM281.204 181.699C281.614 181.699 281.908 181.33 281.895 180.716C281.884 180.167 281.687 179.803 281.22 179.803C281.01 179.803 280.802 179.916 280.566 180.142L280.594 181.443C280.823 181.633 281.04 181.699 281.204 181.699ZM283.228 181.997L283.175 179.506H283.601L283.653 181.997H283.228ZM283.38 178.994C283.216 178.994 283.096 178.886 283.092 178.717C283.089 178.553 283.204 178.44 283.368 178.44C283.532 178.44 283.652 178.553 283.656 178.717C283.659 178.886 283.544 178.994 283.38 178.994ZM284.699 181.997L284.647 179.506H284.995L285.041 179.957H285.056C285.224 179.645 285.476 179.445 285.753 179.445C285.865 179.445 285.943 179.46 286.02 179.496L285.936 179.86C285.863 179.839 285.807 179.829 285.709 179.829C285.499 179.829 285.251 179.978 285.091 180.398L285.125 181.997H284.699ZM286.885 183.068C286.767 183.068 286.669 183.047 286.587 183.016L286.672 182.683C286.734 182.704 286.796 182.714 286.857 182.714C287.134 182.714 287.309 182.494 287.405 182.186L287.457 182.002L286.405 179.506H286.846L287.377 180.88C287.464 181.095 287.551 181.351 287.638 181.582H287.659C287.72 181.356 287.787 181.1 287.849 180.88L288.266 179.506H288.681L287.8 182.202C287.636 182.694 287.382 183.068 286.885 183.068ZM291.502 182.058C290.877 182.058 290.462 181.587 290.445 180.757C290.428 179.947 290.93 179.445 291.499 179.445C291.786 179.445 291.977 179.552 292.202 179.732L292.172 179.306L292.152 178.348H292.577L292.654 181.997H292.306L292.264 181.705H292.248C292.058 181.894 291.795 182.058 291.502 182.058ZM291.587 181.699C291.818 181.699 292.015 181.587 292.216 181.361L292.188 180.06C291.974 179.87 291.783 179.803 291.578 179.803C291.183 179.803 290.873 180.183 290.885 180.751C290.898 181.346 291.151 181.699 291.587 181.699ZM294.274 182.058C293.859 182.058 293.541 181.802 293.531 181.351C293.519 180.798 293.975 180.531 295.039 180.413C295.027 180.101 294.918 179.798 294.513 179.798C294.226 179.798 293.967 179.926 293.775 180.054L293.605 179.768C293.833 179.614 294.178 179.445 294.577 179.445C295.182 179.445 295.452 179.85 295.465 180.464L295.498 181.997H295.149L295.102 181.699H295.086C294.855 181.899 294.586 182.058 294.274 182.058ZM294.384 181.71C294.625 181.71 294.823 181.602 295.059 181.392L295.045 180.716C294.207 180.813 293.939 181.003 293.946 181.325C293.952 181.602 294.143 181.71 294.384 181.71ZM297.202 182.058C296.669 182.058 296.482 181.72 296.472 181.223L296.443 179.85H296.074L296.067 179.532L296.456 179.506L296.49 178.707H296.844L296.861 179.506H297.537L297.545 179.85H296.868L296.897 181.233C296.904 181.535 297.01 181.71 297.292 181.71C297.384 181.71 297.476 181.694 297.578 181.648L297.671 181.951C297.539 182.012 297.371 182.058 297.202 182.058ZM299.294 182.058C298.628 182.058 298.095 181.576 298.077 180.751C298.06 179.942 298.598 179.445 299.167 179.445C299.803 179.445 300.176 179.896 300.191 180.613C300.193 180.705 300.19 180.782 300.176 180.864H298.5C298.547 181.377 298.866 181.715 299.338 181.715C299.579 181.715 299.788 181.648 299.959 181.53L300.114 181.802C299.902 181.956 299.637 182.058 299.294 182.058ZM298.493 180.536H299.81C299.8 180.044 299.564 179.783 299.184 179.783C298.836 179.783 298.534 180.06 298.493 180.536Z" fill="black"/>
<path d="M277.001 196.222C276.437 196.222 275.982 195.977 275.636 195.487C275.295 194.997 275.115 194.294 275.096 193.377C275.076 192.461 275.227 191.766 275.547 191.293C275.873 190.821 276.318 190.585 276.882 190.585C277.446 190.585 277.898 190.821 278.238 191.293C278.584 191.766 278.767 192.461 278.786 193.377C278.805 194.294 278.652 194.997 278.327 195.487C278.007 195.977 277.565 196.222 277.001 196.222ZM276.985 195.453C277.161 195.453 277.316 195.387 277.45 195.256C277.584 195.12 277.685 194.901 277.753 194.599C277.826 194.297 277.857 193.89 277.846 193.377C277.836 192.865 277.787 192.461 277.701 192.165C277.621 191.869 277.511 191.661 277.372 191.541C277.233 191.416 277.075 191.353 276.898 191.353C276.727 191.353 276.575 191.416 276.441 191.541C276.307 191.661 276.203 191.869 276.129 192.165C276.056 192.461 276.025 192.865 276.035 193.377C276.046 193.89 276.095 194.297 276.181 194.599C276.267 194.901 276.38 195.12 276.519 195.256C276.659 195.387 276.814 195.453 276.985 195.453ZM281.594 196.222C281.156 196.222 280.784 196.148 280.479 195.999C280.18 195.846 279.928 195.669 279.725 195.47L280.164 194.838C280.332 194.992 280.52 195.128 280.728 195.248C280.935 195.362 281.176 195.419 281.449 195.419C281.751 195.419 282 195.328 282.195 195.145C282.391 194.963 282.485 194.707 282.478 194.377C282.471 194.052 282.375 193.802 282.189 193.625C282.003 193.449 281.759 193.36 281.457 193.36C281.28 193.36 281.133 193.386 281.014 193.437C280.896 193.483 280.755 193.56 280.592 193.668L280.116 193.369L280.222 190.687H283.126L283.144 191.516H281.093L281.01 192.831C281.123 192.774 281.233 192.731 281.341 192.703C281.454 192.669 281.582 192.651 281.724 192.651C282.037 192.651 282.323 192.711 282.582 192.831C282.841 192.95 283.05 193.135 283.209 193.386C283.374 193.637 283.46 193.958 283.468 194.351C283.477 194.744 283.393 195.08 283.216 195.359C283.046 195.638 282.817 195.851 282.529 195.999C282.242 196.148 281.93 196.222 281.594 196.222ZM284.386 197.486L286.22 190.055H286.886L285.053 197.486H284.386ZM288.615 193.958H290.042L290.016 192.728C290.012 192.569 290.014 192.381 290.021 192.165C290.028 191.948 290.032 191.76 290.035 191.601H290.001C289.935 191.743 289.867 191.883 289.796 192.019C289.725 192.156 289.651 192.298 289.574 192.446L288.615 193.958ZM290.087 196.119L290.058 194.718H287.657L287.643 194.052L289.725 190.687H290.895L290.964 193.958H291.648L291.664 194.718H290.98L291.01 196.119H290.087ZM294.444 196.222C293.88 196.222 293.425 195.977 293.078 195.487C292.738 194.997 292.558 194.294 292.538 193.377C292.519 192.461 292.67 191.766 292.99 191.293C293.316 190.821 293.761 190.585 294.325 190.585C294.889 190.585 295.341 190.821 295.681 191.293C296.027 191.766 296.21 192.461 296.229 193.377C296.248 194.294 296.095 194.997 295.769 195.487C295.449 195.977 295.008 196.222 294.444 196.222ZM294.428 195.453C294.604 195.453 294.759 195.387 294.893 195.256C295.027 195.12 295.128 194.901 295.195 194.599C295.269 194.297 295.3 193.89 295.289 193.377C295.278 192.865 295.23 192.461 295.144 192.165C295.064 191.869 294.954 191.661 294.815 191.541C294.675 191.416 294.518 191.353 294.341 191.353C294.17 191.353 294.018 191.416 293.884 191.541C293.749 191.661 293.646 191.869 293.572 192.165C293.499 192.461 293.467 192.865 293.478 193.377C293.489 193.89 293.537 194.297 293.624 194.599C293.71 194.901 293.822 195.12 293.962 195.256C294.102 195.387 294.257 195.453 294.428 195.453Z" fill="black"/>
<path d="M7.74196 48.4795C3.46372 30.4235 14.6328 12.318 32.6888 8.03978C50.7448 3.76154 68.8503 14.9306 73.1286 32.9866C77.4068 51.0426 66.2377 69.1481 48.1817 73.4264C30.1257 77.7046 12.0202 66.5355 7.74196 48.4795Z" fill="black"/>
<path d="M46.9224 73.0027C65.9154 73.0027 81.3594 57.5587 81.3594 38.5657C81.3594 19.5727 65.9154 4.12866 46.9224 4.12866C27.9294 4.12866 12.4854 19.5727 12.4854 38.5657C12.4854 57.5587 27.9294 73.0027 46.9224 73.0027Z" fill="#FF8D1D"/>
<path d="M46.9237 4.96585C28.3597 4.96585 13.3252 20.0198 13.3252 38.5643C13.3252 57.1088 28.3792 72.1628 46.9237 72.1628C65.4682 72.1628 80.5222 57.1283 80.5222 38.5643C80.5222 20.0003 65.4877 4.96585 46.9237 4.96585ZM46.9237 3.30835C66.3652 3.30835 82.1797 19.1228 82.1797 38.5643C82.1797 58.0058 66.3652 73.8203 46.9237 73.8203C27.4822 73.8203 11.6677 58.0058 11.6677 38.5643C11.6677 19.1228 27.4822 3.30835 46.9237 3.30835Z" fill="black"/>
<path d="M47.4854 44.3631L37.4862 44.4185C36.6251 44.4232 35.9483 43.7539 35.9436 42.8929C35.9388 42.0318 36.6082 41.355 37.4692 41.3503L47.4684 41.2949C51.519 41.2725 54.8722 37.9431 54.8494 33.832C54.8267 29.7208 51.4975 26.4284 47.3863 26.4511L37.3871 26.5065C36.526 26.5113 35.8492 25.8419 35.8444 24.9809C35.8397 24.1198 36.509 23.4431 37.3701 23.4383L47.3693 23.3829C53.1359 23.351 57.8858 28.0485 57.9177 33.815C57.9496 39.5815 53.2521 44.3312 47.4854 44.3631Z" fill="#090909"/>
<path d="M54.3542 54.8163C53.863 54.819 53.3705 54.5792 53.1256 54.15L46.018 44.1901C45.5231 43.5198 45.6996 42.5364 46.376 42.0415C47.0464 41.5466 48.0297 41.7231 48.5247 42.3995L55.6325 52.4201C56.1274 53.0904 55.9509 54.0737 55.2745 54.5686C54.9663 54.7523 54.6634 54.8146 54.3542 54.8163Z" fill="#090909"/>
<path d="M61.7479 26.4358L47.3949 26.5153C46.5338 26.52 45.857 25.8507 45.8522 24.9897C45.8475 24.1286 46.5168 23.4518 47.3779 23.4471L61.7309 23.3676C62.5919 23.3629 63.2688 24.0322 63.2735 24.8932C63.2783 25.7543 62.6089 26.4311 61.7479 26.4358Z" fill="#090909"/>
<path d="M61.7788 32.449L37.2386 32.5849C36.3776 32.5896 35.7008 31.9203 35.696 31.0592C35.6912 30.1982 36.3606 29.5214 37.2216 29.5167L61.7558 29.3809C62.6168 29.3761 63.2936 30.0454 63.2984 30.9065C63.3031 31.7675 62.6338 32.4443 61.7727 32.4491L61.7788 32.449Z" fill="#090909"/>
<path d="M7.74196 158.48C3.46372 140.424 14.6328 122.318 32.6888 118.04C50.7448 113.762 68.8503 124.931 73.1286 142.987C77.4068 161.043 66.2377 179.148 48.1817 183.426C30.1257 187.705 12.0202 176.536 7.74196 158.48Z" fill="black"/>
<path d="M46.9224 183.003C65.9154 183.003 81.3594 167.559 81.3594 148.566C81.3594 129.573 65.9154 114.129 46.9224 114.129C27.9294 114.129 12.4854 129.573 12.4854 148.566C12.4854 167.559 27.9294 183.003 46.9224 183.003Z" fill="#FF8D1D"/>
<path d="M46.9237 114.966C28.3597 114.966 13.3252 130.02 13.3252 148.564C13.3252 167.109 28.3792 182.163 46.9237 182.163C65.4682 182.163 80.5222 167.128 80.5222 148.564C80.5222 130 65.4877 114.966 46.9237 114.966ZM46.9237 113.308C66.3652 113.308 82.1797 129.123 82.1797 148.564C82.1797 168.006 66.3652 183.82 46.9237 183.82C27.4822 183.82 11.6677 168.006 11.6677 148.564C11.6677 129.123 27.4822 113.308 46.9237 113.308Z" fill="black"/>
<path d="M64.9852 138.93C56.2704 136.245 49.3114 131.191 46.9212 129C40.4127 133.811 31.7071 137.625 28.1679 138.93C26.2926 155.042 39.8887 165.69 46.9212 169C61.8136 160.273 65.169 145.317 64.9852 138.93Z" fill="#FF8D1D" stroke="black" stroke-width="2.5"/>
<path d="M39.5 148.282L44.6979 153.718L54.925 143.939" stroke="#090909" stroke-width="2.5" stroke-linecap="round"/>
<path d="M7.74196 268.48C3.46372 250.424 14.6328 232.318 32.6888 228.04C50.7448 223.762 68.8503 234.931 73.1286 252.987C77.4068 271.043 66.2377 289.148 48.1817 293.426C30.1257 297.705 12.0202 286.536 7.74196 268.48Z" fill="black"/>
<path d="M46.9224 293.003C65.9154 293.003 81.3594 277.559 81.3594 258.566C81.3594 239.573 65.9154 224.129 46.9224 224.129C27.9294 224.129 12.4854 239.573 12.4854 258.566C12.4854 277.559 27.9294 293.003 46.9224 293.003Z" fill="#FF8D1D"/>
<path d="M46.9237 224.966C28.3597 224.966 13.3252 240.02 13.3252 258.564C13.3252 277.109 28.3792 292.163 46.9237 292.163C65.4682 292.163 80.5222 277.128 80.5222 258.564C80.5222 240 65.4877 224.966 46.9237 224.966ZM46.9237 223.308C66.3652 223.308 82.1797 239.123 82.1797 258.564C82.1797 278.006 66.3652 293.82 46.9237 293.82C27.4822 293.82 11.6677 278.006 11.6677 258.564C11.6677 239.123 27.4822 223.308 46.9237 223.308Z" fill="black"/>
<path d="M31.7891 260.454L42.1848 271.326L62.6391 251.767" stroke="#090909" stroke-width="3" stroke-linecap="round"/>
<defs>
<clipPath id="clip0_40001856_10871">
<rect width="264.156" height="291.594" fill="white" transform="translate(378.234 66.4551)"/>
</clipPath>
<clipPath id="clip1_40001856_10871">
<rect x="320.32" y="148.562" width="26.645" height="20.4962" rx="3.27939" fill="white"/>
</clipPath>
</defs>
</svg>
